<svg xmlns="http://www.w3.org/2000/svg" width="244" height="50" viewBox="0 0 244 50"><defs><linearGradient id="a" x1="100%" x2="0%" y1="0%" y2="100%"><stop offset="0%" stop-color="#323231"/><stop offset="100%" stop-color="#222"/></linearGradient><linearGradient id="b" x1="100%" x2="0%" y1="36.219%" y2="63.781%"><stop offset="0%" stop-color="red"/><stop offset="100%" stop-color="#EB3500"/></linearGradient><linearGradient id="c" x1="100%" x2="0%" y1="36.219%" y2="63.781%"><stop offset="0%" stop-color="#FFC400"/><stop offset="100%" stop-color="#FF9100"/></linearGradient></defs><g fill="none" fill-rule="evenodd"><rect width="50" height="50" fill="url(#a)" rx="16"/><path fill="url(#b)" d="M29.982 25.487H15v-.848C15 19.316 19.11 15 24.18 15h5.802c2.758 0 4.993 2.348 4.993 5.244s-2.235 5.243-4.993 5.243"/><path fill="url(#c)" d="M29.982 34.831H17.378c-1.313 0-2.378-1.117-2.378-2.497v-7.99h14.982c2.758 0 4.993 2.348 4.993 5.244s-2.235 5.243-4.993 5.243"/><path fill="#FF6F00" d="M32.248 24.916a4.774 4.774 0 00-2.266-.572H15v1.143h14.982c.816 0 1.586-.207 2.266-.571"/><path fill="#30302F" d="M205.507 18.574l.621 8.102.029.894v1.253h.115c.356-1.268.597-2.063.722-2.386.122-.313 1.218-2.813 3.289-7.499l.16-.364h6.006l-9.672 18.394c-.923 1.778-1.997 3.062-3.218 3.85-1.223.788-2.72 1.182-4.49 1.182-.774 0-1.439-.062-1.992-.188l-.23-.057v-4.426c.442.116.966.173 1.573.173.837 0 1.523-.175 2.057-.526.474-.312.901-.781 1.281-1.408l.14-.243.332-.591-2.338-16.16h5.615zM93.614 15.3v3.272h4.013v4.225h-4.013v6.357c0 1.057.51 1.586 1.53 1.586.676 0 1.47-.148 2.38-.444l.348-.118v4.108c-.76.327-1.484.56-2.172.7-.688.139-1.494.209-2.418.209-1.896 0-3.262-.464-4.1-1.392-.787-.872-1.205-2.186-1.25-3.94l-.005-.334v-6.732h-1.978v-2.293l2.512-1.773 1.458-3.43h3.695zm130.72 2.984c1.83 0 3.268.413 4.317 1.24 1.049.827 1.573 1.927 1.573 3.301 0 1.932-.753 3.415-2.259 4.448-1.43.981-3.467 1.497-6.11 1.546l-.421.003h-.852v.231c0 1.422.789 2.134 2.367 2.134.76 0 1.506-.113 2.237-.339.64-.197 1.358-.496 2.152-.897l.346-.177v3.95c-1.078.548-2.084.93-3.017 1.146-.934.216-2.012.324-3.233.324-2.04 0-3.629-.57-4.764-1.708-1.136-1.139-1.704-2.722-1.704-4.75 0-2.027.402-3.857 1.206-5.485.803-1.629 1.905-2.864 3.306-3.705 1.4-.84 3.019-1.262 4.857-1.262zm-116.742 0c1.76 0 3.425.357 4.994 1.07l.36.17-1.659 4.166a18.373 18.373 0 00-1.891-.713 6.088 6.088 0 00-1.804-.267c-.915 0-1.622.356-2.122 1.067-.501.711-.75 1.715-.75 3.013 0 2.614.966 3.92 2.9 3.92 1.545 0 3.031-.417 4.459-1.255l.305-.185v4.483c-1.453.961-3.2 1.442-5.24 1.442-2.675 0-4.703-.721-6.084-2.163-1.381-1.442-2.071-3.512-2.071-6.213 0-2.71.745-4.81 2.237-6.3 1.491-1.49 3.613-2.235 6.366-2.235zm14.511 0c1.607 0 3.027.342 4.258 1.024 1.232.682 2.182 1.66 2.851 2.934.67 1.273 1.004 2.76 1.004 4.461 0 2.672-.72 4.755-2.158 6.25-1.439 1.494-3.453 2.241-6.041 2.241-2.483 0-4.458-.763-5.926-2.291-1.468-1.53-2.2-3.595-2.2-6.2 0-2.661.718-4.73 2.157-6.206 1.438-1.475 3.457-2.213 6.055-2.213zm53.01-5.809l-.708 3.33c-.325 1.495-.703 2.804-1.135 3.927l-.164.412h.115c.462-.567.835-.959 1.12-1.174.283-.217.603-.385.96-.505.355-.12.769-.18 1.24-.18 1.492 0 2.637.536 3.436 1.607.799 1.071 1.198 2.612 1.198 4.62 0 1.71-.339 3.45-1.017 5.218-.68 1.77-1.557 3.122-2.635 4.059-1.078.937-2.276 1.405-3.594 1.405-.799 0-1.497-.153-2.093-.461-.53-.274-1.065-.733-1.603-1.378l-.202-.25h-.115l-.707 1.8h-4.432l4.749-22.43h5.587zm15.407 6.098l-1.863 8.894c-.183.79-.274 1.467-.274 2.033 0 .423.108.735.325.937.216.202.473.303.772.303.567 0 1.085-.377 1.552-1.132.424-.686.77-1.6 1.04-2.743l.078-.35 1.675-7.942h5.586l-3.45 16.333h-4.475l.188-2.278h-.116c-.52.894-1.138 1.546-1.854 1.954-.717.408-1.6.612-2.649.612-1.357 0-2.416-.41-3.176-1.232-.76-.822-1.14-1.954-1.14-3.395a16 16 0 01.265-2.8l.096-.501 1.833-8.693h5.587zM67.362 13.83c2.868 0 4.997.425 6.387 1.276 1.39.85 2.086 2.174 2.086 3.971 0 1.182-.303 2.191-.91 3.028a4.05 4.05 0 01-2.395 1.615v.143c1.308.346 2.256.923 2.843 1.73.588.807.881 1.856.881 3.143 0 1.913-.72 3.419-2.158 4.52-1.439 1.1-3.4 1.65-5.883 1.65H60V13.831zm175.483 4.454c.472 0 .825.03 1.061.089l.094.027-1.212 5.521c-.52-.21-1.112-.317-1.776-.317-.991 0-1.783.339-2.375 1.016-.546.626-.971 1.557-1.276 2.792l-.073.315-1.53 7.179h-5.586l3.45-16.333h4.46l-.26 2.725h.115c.626-1.077 1.305-1.848 2.036-2.314.731-.467 1.688-.7 2.872-.7zm-91.632 0c1.81 0 3.217.525 4.223 1.572.946.986 1.447 2.35 1.503 4.094l.005.332v10.624H151.3v-8.91c0-1.085-.157-1.904-.47-2.457-.312-.552-.815-.829-1.507-.829-.953 0-1.642.38-2.065 1.139-.397.712-.608 1.9-.632 3.567l-.003.34v7.15h-5.644V18.574h4.258l.708 2.018h.332a4.458 4.458 0 011.999-1.73c.851-.384 1.83-.577 2.937-.577zm-13.14.289v16.333h-5.644V18.574h5.644zm-53.847 0v16.333h-5.644V18.574h5.644zm37.82 3.907c-.866 0-1.487.353-1.863 1.06-.375.706-.563 1.76-.563 3.163 0 1.404.188 2.473.563 3.208.376.735 1.006 1.103 1.891 1.103.876 0 1.494-.368 1.855-1.103s.542-1.804.542-3.208c0-1.393-.183-2.445-.549-3.157-.366-.71-.991-1.066-1.876-1.066zm52.186.288c-.481 0-.938.274-1.372.822-.432.547-.777 1.288-1.032 2.22a10.757 10.757 0 00-.382 2.84c0 .624.091 1.124.274 1.499.183.375.467.562.852.562.471 0 .933-.283 1.386-.85.452-.567.818-1.317 1.097-2.25a9.606 9.606 0 00.418-2.768c0-1.383-.414-2.075-1.241-2.075zM67.593 26.085h-1.891v4.425h2.007c1.78 0 2.67-.75 2.67-2.248 0-.702-.238-1.24-.714-1.615-.477-.375-1.167-.562-2.072-.562zm156.121-4.022c-.587 0-1.136.334-1.645 1.001a4.598 4.598 0 00-.881 1.992l-.043.28h.418c1.05 0 1.872-.2 2.469-.6.596-.398.895-.924.895-1.578 0-.307-.096-.567-.29-.779-.192-.21-.5-.316-.923-.316zM67.304 18.14h-1.602v3.777h1.718c.818 0 1.45-.168 1.898-.504.447-.336.671-.836.671-1.5 0-1.181-.895-1.773-2.685-1.773zM81.426 12c1.05 0 1.814.212 2.295.634.482.424.722 1.048.722 1.875 0 1.653-1.005 2.479-3.017 2.479-1.992 0-2.988-.826-2.988-2.48 0-.845.236-1.475.708-1.888.47-.413 1.231-.62 2.28-.62zm53.847 0c1.049 0 1.813.212 2.295.634.481.424.722 1.048.722 1.875 0 1.653-1.006 2.479-3.017 2.479-1.992 0-2.988-.826-2.988-2.48 0-.845.235-1.475.707-1.888.471-.413 1.232-.62 2.28-.62z"/></g></svg>