<svg xmlns="http://www.w3.org/2000/svg" width="241" height="239" viewBox="0 0 241 239"><defs><linearGradient id="a" x1="100%" x2="0%" y1="0%" y2="100%"><stop offset="0%" stop-color="#6D6D6D"/><stop offset="100%" stop-color="#292929"/></linearGradient><linearGradient id="c" x1="100%" x2="0%" y1="37.468%" y2="62.532%"><stop offset="0%" stop-color="red"/><stop offset="100%" stop-color="#EB3500"/></linearGradient><linearGradient id="d" x1="100%" x2="0%" y1="37.468%" y2="62.532%"><stop offset="0%" stop-color="#FFC400"/><stop offset="100%" stop-color="#FF9100"/></linearGradient><filter id="b" width="325.6%" height="338.8%" x="-112.8%" y="-119.4%" filterUnits="objectBoundingBox"><feOffset dy="15" in="SourceAlpha" result="shadowOffsetOuter1"/><feGaussianBlur in="shadowOffsetOuter1" result="shadowBlurOuter1" stdDeviation="19"/><feColorMatrix in="shadowBlurOuter1" result="shadowMatrixOuter1" values="0 0 0 0 0 0 0 0 0 0 0 0 0 0 0 0 0 0 0.5 0"/><feMerge><feMergeNode in="shadowMatrixOuter1"/><feMergeNode in="SourceGraphic"/></feMerge></filter></defs><g transform="translate(40 38)" fill="none" fill-rule="evenodd"><rect width="160" height="160" fill="url(#a)" rx="50"/><g filter="url(#b)" transform="translate(35.294 37.695)"><path fill="url(#c)" d="M66.81 44.596H0v-3.605C0 18.352 18.329 0 40.939 0h25.87c12.3 0 22.27 9.983 22.27 22.298 0 12.315-9.97 22.298-22.27 22.298"/><path fill="url(#d)" d="M66.81 84.333H10.604C4.748 84.333 0 79.579 0 73.715V39.736h66.81c12.298 0 22.269 9.984 22.269 22.299s-9.97 22.298-22.27 22.298"/><path fill="#FF6F00" d="M76.915 42.166a22.146 22.146 0 00-10.106-2.43H0v4.86h66.81c3.639 0 7.071-.88 10.105-2.43"/></g><path fill="#F8F8F8" d="M126.528 180.072l.54 7.063.025.78v1.093h.1c.31-1.106.519-1.8.628-2.08.106-.273 1.054-2.44 2.844-6.503l.156-.353h5.222l-8.41 16.037c-.804 1.55-1.737 2.669-2.8 3.356-1.062.687-2.364 1.03-3.903 1.03-.66 0-1.228-.052-1.703-.157l-.23-.056v-3.86c.385.102.84.152 1.368.152.728 0 1.324-.153 1.789-.459.406-.267.772-.668 1.098-1.202l.138-.237.289-.516-2.034-14.088h4.883zm-97.298-2.853v2.853h3.49v3.682h-3.49v5.543c0 .922.443 1.382 1.33 1.382.588 0 1.278-.129 2.07-.387l.302-.103v3.582c-.66.285-1.29.488-1.888.61-.599.121-1.3.182-2.103.182-1.649 0-2.837-.404-3.565-1.213-.682-.758-1.045-1.897-1.088-3.417l-.004-.31v-5.869h-1.72v-1.998l2.184-1.546 1.268-2.991h3.214zm113.67 2.601c1.59 0 2.84.36 3.753 1.081.912.72 1.368 1.68 1.368 2.878 0 1.685-.655 2.977-1.964 3.878-1.237.85-2.995 1.3-5.273 1.347l-.407.004h-.74v.2c0 1.24.686 1.861 2.058 1.861.66 0 1.31-.098 1.945-.295a12.239 12.239 0 001.83-.76l.342-.177v3.444c-.937.477-1.812.81-2.624 1-.811.188-1.749.282-2.81.282-1.775 0-3.156-.497-4.143-1.49-.988-.992-1.482-2.373-1.482-4.14 0-1.768.35-3.363 1.049-4.782.698-1.42 1.656-2.498 2.874-3.23 1.218-.734 2.626-1.1 4.224-1.1zm-101.516 0c1.511 0 2.941.303 4.29.908l.367.173-1.444 3.632a15.86 15.86 0 00-1.644-.621 5.256 5.256 0 00-1.569-.233c-.795 0-1.41.31-1.845.93-.436.62-.653 1.495-.653 2.627 0 2.279.841 3.418 2.523 3.418 1.329 0 2.607-.357 3.836-1.07l.306-.187v3.91c-1.263.837-2.782 1.256-4.556 1.256-2.327 0-4.09-.628-5.291-1.886-1.2-1.256-1.8-3.062-1.8-5.416 0-2.363.647-4.194 1.944-5.493 1.297-1.298 3.143-1.948 5.536-1.948zm12.619 0c1.397 0 2.631.298 3.702.893a6.088 6.088 0 012.48 2.557c.581 1.11.872 2.407.872 3.89 0 2.33-.625 4.146-1.876 5.448-1.251 1.303-3.003 1.955-5.254 1.955-2.158 0-3.876-.666-5.152-1.998-1.277-1.333-1.914-3.134-1.914-5.405 0-2.32.625-4.124 1.876-5.41 1.251-1.287 3.007-1.93 5.266-1.93zm46.095-5.064l-.615 2.903c-.283 1.303-.612 2.444-.987 3.423l-.143.36h.1c.402-.495.726-.836.973-1.024.247-.189.525-.335.835-.44.31-.105.67-.158 1.08-.158 1.296 0 2.292.468 2.987 1.402.694.934 1.042 2.277 1.042 4.028 0 1.491-.295 3.008-.885 4.55-.59 1.541-1.354 2.72-2.291 3.538-.937.816-1.98 1.225-3.126 1.225-.694 0-1.3-.134-1.82-.403-.46-.238-.925-.638-1.393-1.2l-.175-.219h-.101l-.615 1.57H91.11l4.13-19.555h4.858zm13.397 5.316l-1.62 7.754c-.158.688-.238 1.279-.238 1.773 0 .368.094.64.283.816a.949.949 0 00.671.264c.494 0 .944-.328 1.35-.986.365-.592.664-1.38.897-2.362l.075-.334 1.456-6.925h4.858l-3 14.24h-3.891l.163-1.986h-.1c-.452.779-.99 1.347-1.613 1.703-.624.355-1.391.534-2.303.534-1.18 0-2.1-.358-2.762-1.075-.661-.716-.992-1.703-.992-2.96 0-.76.077-1.574.231-2.44l.083-.437 1.594-7.58h4.858zM6.402 175.937c2.493 0 4.345.37 5.554 1.112 1.21.742 1.814 1.896 1.814 3.463 0 1.03-.264 1.91-.791 2.639a3.521 3.521 0 01-2.084 1.408v.125c1.138.302 1.963.805 2.473 1.509.51.703.766 1.617.766 2.74 0 1.667-.626 2.98-1.876 3.94-1.252.96-2.957 1.439-5.116 1.439H0v-18.375zm152.594 3.883c.401 0 .705.025.91.074l.094.027-1.054 4.814c-.452-.184-.967-.277-1.544-.277-.862 0-1.55.296-2.065.886-.472.542-.84 1.346-1.104 2.411l-.07.297-1.33 6.26h-4.858l3-14.24h3.878l-.225 2.376h.1c.544-.939 1.134-1.611 1.77-2.018.636-.406 1.468-.61 2.498-.61zm-79.68 0c1.573 0 2.797.457 3.672 1.37.82.857 1.255 2.04 1.306 3.552l.005.307v9.262h-4.907v-7.767c0-.946-.137-1.66-.409-2.143-.271-.48-.709-.722-1.311-.722-.829 0-1.427.331-1.795.992-.344.619-.527 1.649-.55 3.091l-.003.316v6.233h-4.907v-14.24h3.703l.615 1.76h.288a3.887 3.887 0 011.739-1.508c.74-.335 1.592-.503 2.554-.503zm-11.426.252v14.24h-4.908v-14.24h4.908zm-46.824 0v14.24H16.16v-14.24h4.907zm32.887 3.406c-.753 0-1.293.308-1.62.924-.326.615-.49 1.535-.49 2.758 0 1.224.164 2.156.49 2.797.327.64.875.961 1.644.961.762 0 1.3-.32 1.614-.961.314-.64.47-1.573.47-2.797 0-1.215-.159-2.132-.477-2.752-.318-.62-.862-.93-1.631-.93zm45.379.251c-.418 0-.816.239-1.193.717-.376.477-.675 1.123-.897 1.935a9.397 9.397 0 00-.332 2.476c0 .544.079.98.238 1.307.16.327.406.49.74.49.41 0 .812-.247 1.206-.741.393-.495.711-1.148.953-1.96a8.404 8.404 0 00.364-2.414c0-1.207-.36-1.81-1.079-1.81zm-92.73 2.89H4.959v3.86h1.745c1.548 0 2.322-.654 2.322-1.961 0-.612-.207-1.081-.621-1.408-.414-.327-1.015-.49-1.801-.49zm135.758-3.506c-.51 0-.987.292-1.43.874a4.001 4.001 0 00-.761 1.707l-.043.272h.364c.912 0 1.627-.173 2.146-.521.519-.348.778-.807.778-1.377a.971.971 0 00-.25-.678c-.168-.184-.436-.277-.804-.277zM6.352 179.695H4.958v3.293h1.494c.711 0 1.262-.147 1.65-.44.39-.293.584-.73.584-1.308 0-1.03-.778-1.545-2.334-1.545zm12.28-5.354c.912 0 1.577.184 1.995.553.419.369.628.913.628 1.634 0 1.44-.874 2.161-2.623 2.161-1.732 0-2.599-.72-2.599-2.161 0-.738.205-1.287.615-1.647.41-.36 1.071-.54 1.984-.54zm46.822 0c.913 0 1.578.184 1.996.553.419.369.628.913.628 1.634 0 1.44-.875 2.161-2.624 2.161-1.732 0-2.598-.72-2.598-2.161 0-.738.205-1.287.615-1.647.41-.36 1.071-.54 1.983-.54z"/></g></svg>