<?xml version="1.0" encoding="UTF-8"?> <svg xmlns="http://www.w3.org/2000/svg" width="60" height="60" viewBox="0 0 60 60" fill="none"> <rect x="60" width="60" height="60" transform="rotate(90 60 0)" fill="white"></rect> <path d="M36 14H24C18.478 14 14 18.478 14 24V36C14 41.522 18.478 46 24 46H36C41.522 46 46 41.522 46 36V24C46 18.478 41.522 14 36 14ZM43 36C43 39.86 39.86 43 36 43H24C20.14 43 17 39.86 17 36V24C17 20.14 20.14 17 24 17H36C39.86 17 43 20.14 43 24V36Z" fill="url(#paint0_linear)"></path> <path d="M30 22C25.582 22 22 25.582 22 30C22 34.418 25.582 38 30 38C34.418 38 38 34.418 38 30C38 25.582 34.418 22 30 22ZM30 35C27.244 35 25 32.756 25 30C25 27.242 27.244 25 30 25C32.756 25 35 27.242 35 30C35 32.756 32.756 35 30 35Z" fill="url(#paint1_linear)"></path> <path d="M38.6001 22.466C39.1888 22.466 39.6661 21.9887 39.6661 21.4C39.6661 20.8112 39.1888 20.334 38.6001 20.334C38.0113 20.334 37.5341 20.8112 37.5341 21.4C37.5341 21.9887 38.0113 22.466 38.6001 22.466Z" fill="url(#paint2_linear)"></path> <defs> <linearGradient id="paint0_linear" x1="16.9293" y1="43.0709" x2="43.0707" y2="16.9291" gradientUnits="userSpaceOnUse"> <stop stop-color="#FFC107"></stop> <stop offset="0.507" stop-color="#F44336"></stop> <stop offset="0.99" stop-color="#9C27B0"></stop> </linearGradient> <linearGradient id="paint1_linear" x1="24.3433" y1="35.6567" x2="35.6567" y2="24.3433" gradientUnits="userSpaceOnUse"> <stop stop-color="#FFC107"></stop> <stop offset="0.507" stop-color="#F44336"></stop> <stop offset="0.99" stop-color="#9C27B0"></stop> </linearGradient> <linearGradient id="paint2_linear" x1="37.8464" y1="22.1539" x2="39.3538" y2="20.6463" gradientUnits="userSpaceOnUse"> <stop stop-color="#FFC107"></stop> <stop offset="0.507" stop-color="#F44336"></stop> <stop offset="0.99" stop-color="#9C27B0"></stop> </linearGradient> </defs> </svg> 