<?xml version="1.0" encoding="UTF-8"?> <svg xmlns="http://www.w3.org/2000/svg" width="334" height="322" viewBox="0 0 334 322" fill="none"> <path d="M166.998 122.561C155.134 122.561 145.516 112.871 145.516 100.931V21.6299C145.516 9.69835 155.134 0 166.998 0C178.862 0 188.48 9.69835 188.48 21.6299V100.931C188.48 112.875 178.862 122.561 166.998 122.561ZM116.812 159.249C113.149 170.614 101.034 176.819 89.7397 173.127L14.8542 148.626C3.56761 144.937 -2.60717 132.746 1.05549 121.377C4.71816 110.012 16.8408 103.799 28.1273 107.491L103.021 131.996C114.303 135.693 120.478 147.892 116.812 159.249ZM217.176 159.257C220.851 170.622 232.966 176.835 244.248 173.135L319.158 148.642C330.432 144.953 336.607 132.754 332.944 121.393C329.282 110.028 317.139 103.847 305.873 107.515L230.947 132.04C219.641 135.749 213.47 147.952 217.133 159.277L217.176 159.257ZM64.3797 317.868C54.7772 310.85 52.6353 297.331 59.6023 287.681L105.903 223.501C112.882 213.842 126.311 211.697 135.921 218.707C145.516 225.726 147.638 239.257 140.659 248.915L94.3976 313.083C87.4386 322.749 74.0022 324.887 64.4116 317.868H64.3797ZM269.608 317.868C279.203 310.85 281.329 297.331 274.362 287.673L228.085 223.497C221.118 213.838 207.677 211.693 198.075 218.703C188.488 225.722 186.35 239.253 193.325 248.911L239.586 313.075C246.553 322.745 259.97 324.887 269.564 317.868" fill="#00ADEE"></path> </svg> 