<?xml version="1.0" encoding="UTF-8"?> <svg xmlns="http://www.w3.org/2000/svg" width="337" height="336" viewBox="0 0 337 336" fill="none"> <path d="M183.804 0.262987C198.039 2.2283 194.46 1.74927 199.778 2.72886C265.271 14.484 319.288 66.5424 332.793 131.755C343.428 183.184 332.932 230.274 300.396 271.627C272.338 307.243 235.183 327.884 190.122 333.971C188.023 334.251 189.386 333.983 183.817 334.906C182.628 334.906 181.515 335.231 180.326 335.231C178.96 335.231 178.268 335.231 176.827 335.231C169.131 335.231 161.434 335.231 153.737 335.231C146.11 334.321 138.483 333.901 130.996 332.012C127.148 331.033 123.299 329.983 119.521 328.864C115.743 327.744 115.533 327.184 116.162 323.336C118.891 307.872 123.509 292.968 129.667 278.554C140.302 253.575 155.136 231.394 174.728 212.572C189.702 198.158 206.635 186.473 225.737 178.076C228.746 176.747 230.845 177.166 233.294 179.336C244.069 189.062 256.594 192 270.308 187.032C283.393 182.274 291.65 172.688 293.819 158.904C297.667 134.764 278.425 115.872 256.664 116.782C240.291 117.481 224.268 130.146 222.308 148.199C221.819 152.537 219.859 154.286 215.941 155.545C182.005 166.461 151.288 183.254 124.139 206.344C101.329 225.796 82.2265 248.397 67.3927 274.566C64.5239 279.674 62.0749 284.922 59.346 290.1C57.6667 293.248 56.6871 293.388 54.0982 290.939C46.6113 283.732 39.4043 276.245 33.2469 267.919C30.9378 264.84 30.378 261.621 30.7279 257.773C31.6375 248.117 32.5471 238.531 34.5063 229.015C41.2235 196.129 55.2877 166.811 76.9088 141.131C86.1449 130.216 96.6406 120.7 108.046 112.094C112.454 108.735 112.664 108.945 116.862 112.513C127.778 121.61 140.163 124.198 153.457 119.091C166.192 114.193 174.168 104.747 176.338 91.3121C180.956 63.3237 153.877 41.4928 127.288 51.4986C114.273 56.3966 104.757 69.831 104.337 84.6649C104.197 88.0935 103.008 89.8427 99.7892 91.0322C77.8883 99.2888 58.0865 111.044 40.5238 126.647C26.5296 139.102 14.8445 153.306 5.25847 169.33C4.27887 170.939 2.41288 173.598 1.20015 173.598C1.20015 166.391 0.458199 166.259 1.20015 151.907C2.0398 144.63 2.66954 137.423 4.34884 130.216C8.5471 112.094 15.4042 95.1605 25.1302 79.3471C37.655 58.9156 53.9583 41.9126 73.6901 28.3382C94.9613 13.7843 118.472 4.61808 144.011 0.839649C146.95 0.419824 150.028 0.69971 152.967 0C160.874 0 168.851 0 176.757 0C178.39 0 178.041 0 180.256 0C181.515 0 182.615 0.262987 183.804 0.262987Z" fill="#FEC011"></path> </svg> 