<?xml version="1.0" encoding="UTF-8"?> <svg xmlns="http://www.w3.org/2000/svg" width="33" height="21" viewBox="0 0 33 21" fill="none"> <path fill-rule="evenodd" clip-rule="evenodd" d="M-9.5554e-07 10.5C-9.5554e-07 10.1906 0.124161 9.89392 0.345172 9.67516C0.566183 9.4564 0.865939 9.3335 1.1785 9.3335H28.9745L21.5571 1.99386C21.4475 1.8854 21.3606 1.75665 21.3013 1.61494C21.242 1.47324 21.2114 1.32136 21.2114 1.16798C21.2114 1.0146 21.242 0.862717 21.3013 0.721011C21.3606 0.579306 21.4475 0.450549 21.5571 0.342092C21.6666 0.233635 21.7967 0.147603 21.9399 0.088907C22.083 0.0302107 22.2365 0 22.3914 0C22.5464 0 22.6998 0.0302107 22.843 0.088907C22.9862 0.147603 23.1162 0.233635 23.2258 0.342092L32.6538 9.67412C32.7635 9.78247 32.8506 9.9112 32.91 10.0529C32.9694 10.1946 33 10.3466 33 10.5C33 10.6534 32.9694 10.8054 32.91 10.9471C32.8506 11.0888 32.7635 11.2175 32.6538 11.3259L23.2258 20.6579C23.1162 20.7664 22.9862 20.8524 22.843 20.9111C22.6998 20.9698 22.5464 21 22.3914 21C22.2365 21 22.083 20.9698 21.9399 20.9111C21.7967 20.8524 21.6666 20.7664 21.5571 20.6579C21.4475 20.5495 21.3606 20.4207 21.3013 20.279C21.242 20.1373 21.2114 19.9854 21.2114 19.832C21.2114 19.6786 21.242 19.5268 21.3013 19.3851C21.3606 19.2434 21.4475 19.1146 21.5571 19.0061L28.9745 11.6665H1.1785C0.865939 11.6665 0.566183 11.5436 0.345172 11.3248C0.124161 11.1061 -9.5554e-07 10.8094 -9.5554e-07 10.5Z" fill="url(#paint0_linear_3402_667)"></path> <defs> <linearGradient id="paint0_linear_3402_667" x1="-5.27867" y1="23.6972" x2="41.935" y2="20.5161" gradientUnits="userSpaceOnUse"> <stop stop-color="#578FC7" stop-opacity="0.97"></stop> <stop offset="1" stop-color="#65CB87"></stop> </linearGradient> </defs> </svg> 