<?xml version="1.0" encoding="UTF-8"?> <svg xmlns="http://www.w3.org/2000/svg" width="60" height="60" viewBox="0 0 60 60" fill="none"> <rect x="60" width="60" height="60" transform="rotate(90 60 0)" fill="#7F4DA0"></rect> <path fill-rule="evenodd" clip-rule="evenodd" d="M36.7147 27.0056C36.5923 26.0117 36.2868 25.2313 35.7443 24.5401C35.0399 23.65 34.1397 23.117 32.8069 22.8008C31.9383 22.5901 31.5874 22.6143 31.2733 22.9012C30.9807 23.1701 30.9235 23.709 31.1471 24.058C31.3044 24.3113 31.4858 24.4021 31.9904 24.5011C32.6623 24.6247 33.1266 24.7852 33.549 25.0267C34.4456 25.5444 34.8631 26.3544 34.9078 27.6659C34.9287 28.2817 34.9819 28.471 35.1969 28.6894C35.5956 29.0886 36.305 29.011 36.6059 28.5332C36.7164 28.3532 36.7332 28.2748 36.7449 27.8567C36.7525 27.5978 36.7414 27.2125 36.7147 27.0056V27.0056Z" fill="white"></path> <path fill-rule="evenodd" clip-rule="evenodd" d="M40.2261 28.1262C40.049 25.0812 38.8581 22.6314 36.7265 20.9078C35.5256 19.9393 34.074 19.2733 32.4828 18.9494C31.8999 18.8336 30.8267 18.7397 30.6426 18.7934C30.4689 18.8431 30.2231 19.0312 30.1136 19.2013C29.9978 19.3858 29.9717 19.7977 30.0705 20.036C30.23 20.4343 30.5266 20.575 31.3575 20.6477C32.6383 20.7597 33.9594 21.2097 34.9575 21.8759C36.0971 22.6344 37.003 23.6719 37.589 24.891C38.0954 25.9384 38.4068 27.4479 38.3981 28.7997C38.3953 29.2886 38.4708 29.5647 38.6674 29.7665C38.9641 30.0769 39.3967 30.1448 39.7785 29.9386C40.2016 29.7161 40.3006 29.3255 40.2261 28.1262V28.1262Z" fill="white"></path> <path fill-rule="evenodd" clip-rule="evenodd" d="M44.1119 39.8524C44.0524 39.6784 43.9134 39.4099 43.8141 39.2558C43.1885 38.3112 39.8278 35.6811 38.1498 34.8209C37.1917 34.3288 36.4818 34.1647 35.9556 34.3188C35.3897 34.478 35.0918 34.7414 34.1436 35.9197C33.7614 36.3921 33.3692 36.8346 33.265 36.9041C33.0068 37.0831 32.5005 37.2274 32.1431 37.2274C31.314 37.2223 29.8098 36.6854 28.6532 35.9794C27.7546 35.4326 26.603 34.4531 25.7193 33.4836C24.6767 32.345 23.9669 31.3407 23.4059 30.2072C22.6812 28.7504 22.4975 27.8605 22.8003 27.2091C22.8748 27.0451 22.9741 26.8711 23.0187 26.8164C23.0634 26.7667 23.5301 26.3838 24.0463 25.9662C25.059 25.1608 25.2228 24.9768 25.4115 24.425C25.6498 23.7239 25.5853 23.008 25.2179 22.2871C24.9349 21.7402 24.1952 20.547 23.6591 19.7763C22.9492 18.7621 21.1819 16.5944 20.8294 16.301C20.194 15.784 19.3799 15.6945 18.4813 16.0425C17.5332 16.4105 15.756 17.8423 14.9964 18.8417C14.3113 19.7465 14.0483 20.3879 14.0086 21.2331C13.9738 21.9291 14.0334 22.2175 14.4007 23.1074C17.2751 30.0878 21.5641 35.6612 27.4568 40.0861C30.5346 42.398 33.7266 44.158 37.0378 45.3612C38.9689 46.0622 39.8079 46.097 40.7958 45.5203C41.2127 45.2717 42.2453 44.2127 42.8212 43.4421C43.7743 42.1593 44.1268 41.5677 44.2261 41.0954C44.2956 40.7722 44.241 40.2105 44.1119 39.8524V39.8524Z" fill="white"></path> <path fill-rule="evenodd" clip-rule="evenodd" d="M43.8009 28.8256C43.7373 27.1031 43.4473 25.6904 42.8426 24.1152C42.2456 22.5658 41.6414 21.5547 40.5003 20.1872C39.4215 18.905 38.5835 18.1729 37.2546 17.3579C35.4004 16.2225 33.144 15.4711 30.6153 15.1551C29.7529 15.0446 29.5578 15.0525 29.2933 15.2291C28.7806 15.5635 28.7874 16.3976 29.3017 16.727C29.472 16.8318 29.623 16.87 30.3128 16.9602C31.3718 17.1028 32.0527 17.2372 32.8606 17.4576C36.0289 18.3237 38.4653 20.094 40.0942 22.7219C41.4573 24.9124 42.0231 27.1029 41.9427 29.9007C41.9148 30.8465 41.9351 31.0129 42.0797 31.2402C42.3566 31.6638 43.0867 31.7475 43.4613 31.3961C43.6944 31.1819 43.7383 31.021 43.7843 30.2115C43.8063 29.7892 43.811 29.1658 43.8009 28.8256V28.8256Z" fill="white"></path> </svg> 