<svg width="7" height="4" viewBox="0 0 7 4" fill="none" xmlns="http://www.w3.org/2000/svg">
<path fill-rule="evenodd" clip-rule="evenodd" d="M3.89128 0.341236L3.66809 0.111886C3.59806 0.0397236 3.50446 0 3.40471 0C3.30495 0 3.21146 0.0397236 3.14138 0.111886L0.108609 3.22979C0.0382522 3.30206 -0.000275295 3.39864 1.48305e-06 3.50131C-0.000275295 3.60443 0.0381969 3.70089 0.108609 3.77323L3.13856 6.88811C3.20864 6.96028 3.30213 7 3.40194 7C3.50169 7 3.59518 6.96028 3.66532 6.88811L3.88846 6.65876C4.03366 6.50949 4.03366 6.26648 3.88846 6.11726L1.34415 3.50148L3.89128 0.882683C3.96142 0.810748 4 0.714569 4 0.612016C4 0.509407 3.96142 0.413285 3.89128 0.341236Z" transform="translate(0 4) rotate(-90)" fill="#46647d"/>
</svg>
