<?xml version="1.0" standalone="no"?>
<!DOCTYPE svg PUBLIC "-//W3C//DTD SVG 1.1//EN" "http://www.w3.org/Graphics/SVG/1.1/DTD/svg11.dtd" >
<svg>
<metadata>
Created by FontForge 20100429 at Tue Jul 03 11:31:23 2012

(URW)++,Copyright 2012 by (URW)++ Design &#38; Development
</metadata>
<defs>
<font id="NordAbWeb-RegularItalic" horiz-adv-x="614" vert-adv-y="2048" >
  <font-face 
    font-family="NordAbWeb"
    font-weight="400"
    font-style="italic"
    font-stretch="normal"
    units-per-em="2048"
    panose-1="0 0 0 0 0 0 0 0 0 0"
    ascent="1775"
    descent="-273"
    x-height="1151"
    cap-height="1365"
    bbox="-271 -566 3131 1591"
    underline-thickness="257"
    underline-position="-88"
    unicode-range="U+0020-FB02"
  />
<missing-glyph vert-adv-y="2457" 
d="M61 0v1365h492v-1365h-492zM492 61v1243h-370v-1243h370z" />
    <glyph glyph-name=".notdef" vert-adv-y="2457" 
d="M61 0v1365h492v-1365h-492zM492 61v1243h-370v-1243h370z" />
    <glyph glyph-name="glyph1" horiz-adv-x="0" vert-adv-y="0" 
 />
    <glyph glyph-name="glyph2" vert-adv-y="2457" 
 />
    <glyph glyph-name="space" unicode=" " vert-adv-y="2457" 
 />
    <glyph glyph-name="exclam" unicode="!" horiz-adv-x="806" vert-adv-y="2457" 
d="M605 450h-431l38 747q3 73 34 148q25 61 98 87q63 21 277 21q156 0 208 -18q82 -29 82 -115q0 -54 -26 -123zM368 355q113 0 172 -32q60 -34 60 -115q0 -106 -81 -166q-81 -61 -230 -61q-103 0 -170 44q-58 38 -58 110q0 220 307 220z" />
    <glyph glyph-name="quotedbl" unicode="&#x22;" horiz-adv-x="869" vert-adv-y="2457" 
d="M457 817h-315l31 548h488zM800 817h-315l203 548h316z" />
    <glyph glyph-name="numbersign" unicode="#" horiz-adv-x="1263" vert-adv-y="2457" 
d="M882 330l-117 -330h-304l116 330h-154l-117 -330h-304l116 330h-184l105 298h185l49 141h-184l105 298h185l105 298h304l-105 -298h155l105 298h305l-106 -298h211l-105 -298h-211l-50 -141h212l-106 -298h-211zM733 769h-155l-50 -141h155z" />
    <glyph glyph-name="dollar" unicode="$" horiz-adv-x="1536" vert-adv-y="2457" 
d="M536 -28q-140 4 -227 11q-152 14 -362 57l79 374q368 -66 659 -66q74 0 101 38q13 18 13 37q0 17 -12 26t-67 9h-103q-84 0 -225 18q-75 9 -119.5 25.5t-85.5 51.5q-104 86 -104 232q0 150 73 291q99 193 316 259q143 44 365 56l43 200h179l-42 -197q310 -9 575 -67
l-85 -401q-92 17 -208 28q-205 19 -278 19h-139q-78 0 -108 -27q-24 -22 -24 -49q0 -41 58 -41l221 -2q256 -2 346 -84q89 -81 89 -229q0 -118 -62 -234q-145 -274 -482 -318q-89 -12 -205 -17l-52 -245h-179z" />
    <glyph glyph-name="percent" unicode="%" horiz-adv-x="1738" vert-adv-y="2457" 
d="M657 1371q160 0 239 -37q136 -64 136 -232q0 -150 -106 -269q-72 -81 -184 -112q-91 -25 -239 -25q-168 0 -251 37q-130 58 -130 217q0 162 120 287q75 77 177 107q88 27 238 27zM609 1180q-86 0 -123 -64q-32 -53 -32 -123q0 -82 99 -82q85 0 124 64q31 53 31 123
q0 82 -99 82zM1032 687q-250 -70 -336 -331l-360 -356h-288l689 680q242 67 320 315l374 370h288zM1257 670q160 0 238 -37q137 -64 137 -233q0 -149 -106 -269q-72 -81 -184 -112q-91 -25 -239 -25q-168 0 -250 37q-131 58 -131 217q0 162 120 287q75 78 177 108
q88 27 238 27zM1209 479q-86 0 -123 -64q-32 -54 -32 -124q0 -82 99 -82q86 0 123 64q32 54 32 123q0 83 -99 83z" />
    <glyph glyph-name="ampersand" unicode="&#x26;" horiz-adv-x="1948" vert-adv-y="2457" 
d="M1853 0h-825l-93 121q-114 -61 -200 -91q-163 -59 -345 -59q-227 0 -346 88q-99 74 -99 219q0 184 149 296q100 75 339 138q-72 80 -97 118q-38 56 -38 123q0 183 180 302q208 139 616 139q412 0 527 -117q63 -64 63 -144q0 -54 -36 -118q-85 -147 -279 -199
q-56 -15 -182 -39l60 -65h753l-460 -319zM627 496q-70 -43 -95 -71q-27 -30 -27 -68q0 -32 22 -55q25 -27 63 -27q77 0 156 77zM1029 928q108 61 139 100q34 43 34 89q0 75 -98 75q-79 0 -116 -51q-28 -38 -28 -83q0 -30 15 -58q15 -27 37 -52q16 -20 17 -20z" />
    <glyph glyph-name="quotesingle" unicode="'" horiz-adv-x="541" vert-adv-y="2457" 
d="M472 817h-329l30 548h503z" />
    <glyph glyph-name="parenleft" unicode="(" horiz-adv-x="667" vert-adv-y="2457" 
d="M531 -58h-373q-131 240 -131 517q0 312 187 629q102 175 259 336h374q-170 -221 -246 -367q-164 -316 -164 -642q0 -197 94 -473z" />
    <glyph glyph-name="parenright" unicode=")" horiz-adv-x="667" vert-adv-y="2457" 
d="M-163 -58q169 220 246 367q164 316 164 641q0 198 -95 474h374q131 -241 131 -517q0 -312 -187 -629q-102 -174 -259 -336h-374z" />
    <glyph glyph-name="asterisk" unicode="*" horiz-adv-x="915" vert-adv-y="2457" 
d="M304 586l-175 156l189 208l-225 64l121 241l228 -68l51 237h262l-50 -237l258 68l18 -241l-252 -64l101 -208l-242 -156l-100 200z" />
    <glyph glyph-name="plus" unicode="+" horiz-adv-x="1092" vert-adv-y="2457" 
d="M72 838h355l78 367h318l-78 -367h358l-66 -310h-358l-78 -367h-318l78 367h-355z" />
    <glyph glyph-name="comma" unicode="," horiz-adv-x="613" vert-adv-y="2457" 
d="M518 328l-391 -601h-322l249 601h464z" />
    <glyph glyph-name="hyphen" unicode="-" horiz-adv-x="750" vert-adv-y="2457" 
d="M671 394h-696l81 382h696z" />
    <glyph glyph-name="period" unicode="." horiz-adv-x="615" vert-adv-y="2457" 
d="M245 355q113 0 172 -32q60 -34 60 -115q0 -106 -81 -166q-81 -61 -230 -61q-103 0 -170 44q-58 38 -58 109q0 116 85 174q70 47 222 47z" />
    <glyph glyph-name="slash" unicode="/" horiz-adv-x="1015" vert-adv-y="2457" 
d="M-217 -58l1054 1482h413l-1054 -1482h-413z" />
    <glyph glyph-name="zero" unicode="0" horiz-adv-x="1638" vert-adv-y="2457" 
d="M988 1404q332 0 503 -167q136 -133 136 -351q0 -183 -67 -371q-135 -380 -419 -488q-175 -66 -476 -66q-235 0 -359 57q-273 125 -273 486q0 187 69 370q131 343 423 451q215 79 463 79zM880 911q-153 0 -229 -144q-52 -99 -52 -230q0 -82 44 -113q45 -30 121 -30
q156 0 230 148q49 101 49 215q0 73 -30 107q-42 47 -133 47z" />
    <glyph glyph-name="one" unicode="1" horiz-adv-x="1050" vert-adv-y="2457" 
d="M832 0h-675l158 741l-300 -94l102 479l366 239h639z" />
    <glyph glyph-name="two" unicode="2" horiz-adv-x="1513" vert-adv-y="2457" 
d="M1336 0h-1399l79 372q451 146 727 314q131 79 131 172q0 38 -24 59q-31 26 -84 26q-95 0 -161 -87q-42 -55 -62 -154h-486q25 150 59 240q110 288 366 385q178 67 466 67q324 0 459 -117q126 -110 126 -291q0 -297 -329 -438q-127 -55 -416 -145h633z" />
    <glyph glyph-name="three" unicode="3" horiz-adv-x="1483" vert-adv-y="2457" 
d="M-88 59l47 329q185 -60 395 -60q184 0 246 49q54 43 54 97q0 97 -281 97q-121 0 -247 -11l20 95l489 285h-536l91 425h1357l-70 -329l-507 -289q59 2 91 2q189 0 280 -90q63 -62 63 -158q0 -92 -42 -192q-78 -186 -339 -276q-182 -62 -454 -62q-331 0 -657 88z" />
    <glyph glyph-name="four" unicode="4" horiz-adv-x="1669" vert-adv-y="2457" 
d="M1331 0h-665l41 193h-762l117 550l659 622h900l-166 -782h188l-83 -390h-188zM804 552l91 425l-425 -425h334z" />
    <glyph glyph-name="five" unicode="5" horiz-adv-x="1528" vert-adv-y="2457" 
d="M-51 49l66 304q118 -19 172 -27q93 -12 213 -12q144 0 206 21q98 34 98 115q0 47 -54 69q-74 31 -239 31q-193 0 -360 -21l178 836h1343l-91 -426h-809l-25 -121q112 7 202 7q236 0 341 -33q256 -81 256 -299q0 -248 -217 -381q-230 -141 -640 -141q-242 0 -445 31
q-80 13 -195 47z" />
    <glyph glyph-name="six" unicode="6" horiz-adv-x="1592" vert-adv-y="2457" 
d="M1645 1336l-84 -394q-250 45 -463 45q-177 0 -260 -40q-65 -31 -95 -120q170 40 314 40q296 0 400 -108q71 -74 71 -201q0 -132 -58 -255q-108 -230 -382 -298q-138 -34 -430 -34q-322 0 -462 79q-183 105 -183 355q0 172 72 402q70 227 161 339q200 248 762 248
q323 0 637 -58zM662 560l-27 -127q-13 -62 -13 -88q0 -31 14 -50q35 -46 103 -46q69 0 126 48q46 39 70 127q12 48 12 82q0 51 -37 69q-36 18 -86 18q-69 0 -162 -33z" />
    <glyph glyph-name="seven" unicode="7" horiz-adv-x="1425" vert-adv-y="2457" 
d="M627 0h-619l650 830h-591l114 535h1370l-98 -465z" />
    <glyph glyph-name="eight" unicode="8" horiz-adv-x="1642" vert-adv-y="2457" 
d="M356 680q-116 26 -168 77q-65 65 -65 176q0 208 165 321q112 77 296 111q158 29 402 29q305 0 459 -59q227 -88 227 -266q0 -157 -113 -279q-56 -61 -158 -89q-32 -9 -100 -21q113 -24 176 -92q69 -75 69 -169q0 -80 -37 -160q-80 -176 -305 -241q-163 -47 -530 -47
q-345 0 -485 51q-215 79 -215 276q0 142 105 254q69 74 177 106q34 10 100 22zM920 1040q-127 0 -187 -79q-38 -49 -38 -115q0 -34 21 -56q42 -45 134 -45q96 0 157 55q62 57 62 136q0 36 -14 55q-39 49 -135 49zM814 559q-105 0 -163 -57q-54 -55 -54 -127q0 -100 149 -100
q104 0 161 57q54 55 54 127q0 100 -147 100z" />
    <glyph glyph-name="nine" unicode="9" horiz-adv-x="1568" vert-adv-y="2457" 
d="M12 26l34 349q278 -58 530 -58q156 0 228 54q40 31 47 93q-80 -21 -143 -26q-65 -6 -173 -6q-206 0 -302 47q-163 80 -163 268q0 118 44 246q84 243 314 332q181 69 519 69q251 0 375 -57q239 -109 239 -440q0 -165 -61 -348q-35 -102 -87 -200.5t-103 -155.5
q-140 -158 -406 -199q-150 -23 -322 -23q-293 0 -570 55zM930 733l26 121q13 61 13 87q0 96 -122 96q-97 0 -154 -74q-46 -60 -46 -132q0 -51 26 -78q27 -30 104 -30q75 0 153 10z" />
    <glyph glyph-name="colon" unicode=":" horiz-adv-x="670" vert-adv-y="2457" 
d="M472 1161q113 0 171 -32q61 -34 61 -116q0 -105 -80 -166q-82 -61 -232 -61q-103 0 -169 44q-59 38 -59 110q0 221 308 221zM300 355q113 0 172 -33q60 -33 60 -114q0 -106 -81 -166q-81 -61 -230 -61q-103 0 -170 44q-58 38 -58 109q0 221 307 221z" />
    <glyph glyph-name="semicolon" unicode=";" horiz-adv-x="733" vert-adv-y="2457" 
d="M534 1161q113 0 172 -32q60 -34 60 -116q0 -105 -81 -166q-80 -61 -230 -61q-103 0 -170 44q-58 38 -58 110q0 221 307 221zM573 328l-391 -601h-322l249 601h464z" />
    <glyph glyph-name="glyph31" vert-adv-y="2457" 
 />
    <glyph glyph-name="equal" unicode="=" horiz-adv-x="1092" vert-adv-y="2457" 
d="M123 1077h1030l-65 -310h-1031zM21 599h1031l-66 -310h-1031z" />
    <glyph glyph-name="glyph33" vert-adv-y="2457" 
 />
    <glyph glyph-name="question" unicode="?" horiz-adv-x="1179" vert-adv-y="2457" 
d="M785 443h-527l51 54q161 171 193 208.5t63 89.5t31 109q0 31 -26 50q-43 31 -179 31q-98 0 -242 -29l98 461q247 37 534 37q324 0 417 -106q56 -62 56 -161q0 -75 -35 -160q-45 -107 -256 -375q-94 -120 -178 -209zM493 355q113 0 172 -32q60 -34 60 -115
q0 -106 -81 -166q-81 -61 -230 -61q-103 0 -170 44q-58 38 -58 110q0 220 307 220z" />
    <glyph glyph-name="at" unicode="@" horiz-adv-x="1926" vert-adv-y="2457" 
d="M1479 970l-175 -372q91 0 153 19q138 43 204 162q40 72 40 149q0 108 -80 175q-60 49 -213 76q-129 23 -293 23q-460 0 -656 -227q-89 -102 -129 -248q-28 -101 -28 -201q0 -134 65 -217q63 -80 236 -119q119 -27 287 -27q352 0 557 138h327q-76 -119 -171 -176
q-271 -164 -762 -164q-330 0 -525 96q-190 92 -249 259q-28 80 -28 189q0 181 70 355q125 313 466 448q241 96 579 96q317 0 508 -82q176 -75 237 -224q32 -76 32 -161q0 -100 -43 -195q-48 -106 -135 -184.5t-198 -114.5q-146 -48 -347 -48h-283l52 110q-43 -63 -85 -86
q-71 -39 -178 -39q-167 0 -167 129q0 43 38 139q82 208 171 275q84 62 222 62q167 0 167 -99q0 -12 -1 -27l53 111h282zM1024 786q-77 0 -128 -76q-35 -53 -35 -91q0 -37 52 -37q84 0 134 79q34 54 34 86q0 39 -57 39z" />
    <glyph glyph-name="A" unicode="A" horiz-adv-x="1897" vert-adv-y="2457" 
d="M1802 0h-708l-11 176h-457l-86 -176h-717l727 1365h1112zM1080 548l-48 432l-240 -432h288z" />
    <glyph glyph-name="B" unicode="B" horiz-adv-x="1938" vert-adv-y="2457" 
d="M-55 0l290 1365h1397q124 0 189 -35q94 -50 130 -143q17 -43 17 -92q0 -75 -34 -148q-67 -149 -239 -219q-67 -27 -185 -50q185 -18 256 -86q69 -66 69 -174q0 -192 -167 -307q-161 -111 -425 -111h-1298zM818 803h262q49 0 76.5 9.5t48.5 33.5q31 34 31 93q0 29 -16 44
q-25 21 -97 21h-262zM717 328h296q81 0 115 40q33 39 33 93q0 40 -22 54t-83 14h-296z" />
    <glyph glyph-name="C" unicode="C" horiz-adv-x="1710" vert-adv-y="2457" 
d="M1612 491l-101 -472q-303 -48 -618 -48q-357 0 -515 63q-239 96 -314 327q-27 85 -27 186q0 154 60 307q84 214 244 344q239 196 759 196q303 0 715 -64l-115 -534q-293 52 -515 52q-247 0 -341 -88q-77 -74 -77 -184q0 -58 50 -94q66 -46 297 -46q243 0 498 55z" />
    <glyph glyph-name="D" unicode="D" horiz-adv-x="1989" vert-adv-y="2457" 
d="M-55 0l290 1365h1191q209 0 324 -73q95 -60 157 -158q73 -115 73 -255q0 -168 -69 -343q-120 -302 -455 -443q-221 -93 -489 -93h-1022zM734 409h106q112 0 177 26q126 51 184 170q33 67 33 139q0 88 -57 120q-51 30 -140 30h-200z" />
    <glyph glyph-name="E" unicode="E" horiz-adv-x="1716" vert-adv-y="2457" 
d="M1511 0h-1566l290 1365h1566l-93 -439h-864l-27 -125h864l-69 -327h-864l-25 -116h864z" />
    <glyph glyph-name="F" unicode="F" horiz-adv-x="1674" vert-adv-y="2457" 
d="M1563 353h-841l-75 -353h-702l290 1365h1544l-98 -458h-841l-29 -138h841z" />
    <glyph glyph-name="G" unicode="G" horiz-adv-x="1783" vert-adv-y="2457" 
d="M1752 689l-131 -617q-173 -39 -289 -59q-241 -42 -472 -42q-311 0 -504 81q-203 85 -278 240q-45 92 -45 223q0 169 59 331q121 330 448 459q226 89 589 89q385 0 733 -85l-100 -472q-285 57 -553 57q-174 0 -277 -41q-136 -55 -199 -176q-36 -71 -36 -148
q0 -200 258 -200q27 0 86 4l76 356h635z" />
    <glyph glyph-name="H" unicode="H" horiz-adv-x="1921" vert-adv-y="2457" 
d="M1702 0h-702l90 425h-353l-90 -425h-702l290 1365h702l-102 -482h353l102 482h702z" />
    <glyph glyph-name="I" unicode="I" horiz-adv-x="866" vert-adv-y="2457" 
d="M647 0h-702l290 1365h702z" />
    <glyph glyph-name="J" unicode="J" horiz-adv-x="1247" vert-adv-y="2457" 
d="M-117 28l97 455q121 -34 225 -34q128 0 191 54q57 48 85 179l145 683h703l-195 -913q-60 -285 -243 -385q-176 -96 -494 -96q-257 0 -514 57z" />
    <glyph glyph-name="K" unicode="K" horiz-adv-x="1911" vert-adv-y="2457" 
d="M1777 0h-794l-243 437l-93 -437h-702l290 1365h702l-111 -526l447 526h832l-724 -701z" />
    <glyph glyph-name="L" unicode="L" horiz-adv-x="1395" vert-adv-y="2457" 
d="M1245 0h-1300l290 1365h702l-187 -882h597z" />
    <glyph glyph-name="M" unicode="M" horiz-adv-x="2362" vert-adv-y="2457" 
d="M2143 0h-673l149 703l-389 -703h-382l-95 679l-145 -679h-663l290 1365h880l73 -662l355 662h890z" />
    <glyph glyph-name="N" unicode="N" horiz-adv-x="1921" vert-adv-y="2457" 
d="M1702 0h-617l-347 612l-130 -612h-663l290 1365h704l269 -571l121 571h664z" />
    <glyph glyph-name="O" unicode="O" horiz-adv-x="1968" vert-adv-y="2457" 
d="M1148 1404q324 0 521 -96q283 -137 283 -446q0 -180 -66 -354q-83 -219 -230 -340q-252 -207 -822 -207q-331 0 -526 96q-189 93 -248 259q-28 80 -28 190q0 183 68 360q86 224 251 345q164 121 432 163q184 30 365 30zM1053 941q-126 0 -208 -83q-65 -66 -91 -193
q-14 -71 -14 -128q0 -96 42 -136q48 -46 136 -46q162 0 252 166q28 52 47 125q20 77 20 135q0 160 -184 160z" />
    <glyph glyph-name="P" unicode="P" horiz-adv-x="1922" vert-adv-y="2457" 
d="M647 0h-702l290 1365h1284q255 0 373 -153q66 -86 66 -212q0 -109 -42 -224q-109 -298 -397 -401q-177 -64 -469 -64h-337zM793 686h228q118 0 179 64q53 56 53 126q0 95 -121 95h-278z" />
    <glyph glyph-name="Q" unicode="Q" horiz-adv-x="1968" vert-adv-y="2457" 
d="M644 -30q-175 21 -275 57.5t-190 113.5q-146 123 -146 366q0 183 68 360q85 223 252 345q262 192 795 192q328 0 523 -95q186 -91 249 -250q34 -85 34 -199q0 -176 -67 -352q-127 -338 -428 -449q-104 -39 -231 -62l91 -270h-579zM1054 941q-123 0 -205 -82
q-69 -68 -94 -194q-14 -70 -14 -128q0 -95 42 -135q47 -46 137 -46q161 0 251 166q29 52 48 124q20 78 20 135q0 160 -185 160z" />
    <glyph glyph-name="R" unicode="R" horiz-adv-x="1922" vert-adv-y="2457" 
d="M1799 0h-817l-243 431l-92 -431h-702l290 1365h1316q153 0 230 -35q117 -51 164 -168q23 -58 23 -123q0 -76 -30 -154q-75 -189 -267 -269q-82 -35 -223 -49zM800 719h214q71 0 110.5 13.5t72.5 50.5q52 56 52 133q0 36 -20 57q-27 28 -113 28h-256z" />
    <glyph glyph-name="S" unicode="S" horiz-adv-x="1692" vert-adv-y="2457" 
d="M-52 40l79 374q410 -66 737 -66q80 0 109 38q13 17 13 35t-14 28q-14 9 -75 9h-115q-102 0 -250 17q-147 17 -230 77q-120 87 -120 243q0 104 42 213q63 163 198 250q210 137 719 137q362 0 704 -69l-85 -400q-102 17 -232 28q-227 19 -308 19h-155q-144 0 -144 -74
q0 -43 65 -43l245 -2q286 -2 387 -84q104 -85 104 -240q0 -79 -32 -160q-96 -239 -373 -338q-174 -61 -518 -61q-296 0 -538 34q-86 12 -213 35z" />
    <glyph glyph-name="T" unicode="T" horiz-adv-x="1515" vert-adv-y="2457" 
d="M972 0h-702l174 822h-410l115 543h1523l-115 -543h-410z" />
    <glyph glyph-name="U" unicode="U" horiz-adv-x="1848" vert-adv-y="2457" 
d="M236 1365h702l-179 -840q-12 -58 -12 -91q0 -32 22 -48q35 -26 94 -26q81 0 128 49q30 31 49 116l178 840h702l-175 -825q-48 -227 -114 -313q-197 -256 -848 -256q-264 0 -423 45q-324 92 -324 323q0 87 28 220z" />
    <glyph glyph-name="V" unicode="V" horiz-adv-x="1818" vert-adv-y="2457" 
d="M1287 0h-1013l-161 1365h724l57 -845l397 845h722z" />
    <glyph glyph-name="W" unicode="W" horiz-adv-x="2382" vert-adv-y="2457" 
d="M1907 0h-685l-40 622l-306 -622h-670l-93 1365h706l-1 -675l306 675h463l13 -653l285 653h692z" />
    <glyph glyph-name="X" unicode="X" horiz-adv-x="1895" vert-adv-y="2457" 
d="M1769 0h-768l-118 319l-272 -319h-767l618 662l-349 703h820l95 -366l263 366h799l-652 -703z" />
    <glyph glyph-name="Y" unicode="Y" horiz-adv-x="1808" vert-adv-y="2457" 
d="M1122 0h-702l83 394l-390 971h785l93 -413l252 413h760l-797 -971z" />
    <glyph glyph-name="Z" unicode="Z" horiz-adv-x="1615" vert-adv-y="2457" 
d="M1430 0h-1526l65 306l746 581h-622l101 478h1526l-86 -406l-694 -513h585z" />
    <glyph glyph-name="bracketleft" unicode="[" horiz-adv-x="660" vert-adv-y="2457" 
d="M813 1424l-64 -300h-220l-188 -883h220l-64 -300h-564l315 1483h565z" />
    <glyph glyph-name="backslash" unicode="\" horiz-adv-x="1015" vert-adv-y="2457" 
d="M934 -58h-412l-424 1482h412z" />
    <glyph glyph-name="bracketright" unicode="]" horiz-adv-x="660" vert-adv-y="2457" 
d="M-135 -59l64 300h220l187 883h-220l64 300h565l-316 -1483h-564z" />
    <glyph glyph-name="glyph65" vert-adv-y="2457" 
 />
    <glyph glyph-name="glyph66" vert-adv-y="2457" 
 />
    <glyph glyph-name="grave" unicode="`" horiz-adv-x="1024" vert-adv-y="2457" 
d="M364 1229l-144 273h546l144 -273h-546z" />
    <glyph glyph-name="a" unicode="a" horiz-adv-x="1789" vert-adv-y="2457" 
d="M1584 0h-663l31 146q-131 -109 -213 -139q-97 -36 -268 -36q-217 0 -308 55q-74 45 -117 126q-51 97 -51 212q0 167 67 370q95 287 282 371q166 75 362 75q177 0 294 -66q56 -32 132 -124l34 161h663zM911 777q-110 0 -190 -103q-62 -80 -62 -204q0 -76 37 -108
q44 -39 112 -39q126 0 202 125q52 84 52 187q0 142 -151 142z" />
    <glyph glyph-name="b" unicode="b" horiz-adv-x="1789" vert-adv-y="2457" 
d="M-68 0l303 1424h663l-92 -434q112 100 192 136q120 54 291 54q215 0 331 -84q144 -106 144 -321q0 -141 -53 -319q-80 -270 -228 -378t-409 -108q-184 0 -293 57q-60 32 -155 119l-31 -146h-663zM942 777q-110 0 -190 -103q-62 -81 -62 -205q0 -76 37 -108
q44 -39 113 -39q124 0 201 125q52 84 52 188q0 142 -151 142z" />
    <glyph glyph-name="c" unicode="c" horiz-adv-x="1478" vert-adv-y="2457" 
d="M1403 438l-91 -384q-290 -85 -568 -85q-220 0 -386 38q-222 51 -304 221q-45 93 -45 216q0 156 61 306q72 176 193 268q151 115 463 150q128 14 254 14q250 0 559 -59l-87 -451q-254 40 -431 40q-180 0 -249 -46q-102 -68 -102 -167q0 -126 208 -126q188 0 525 65z" />
    <glyph glyph-name="d" unicode="d" horiz-adv-x="1789" vert-adv-y="2457" 
d="M1584 0h-663l31 146q-108 -102 -194 -134q-109 -41 -297 -41q-207 0 -298 56q-74 44 -117 125q-51 96 -51 212q0 167 67 370q62 187 153 281q96 98 275 140q109 25 221 25q179 0 290 -69q53 -34 131 -121l92 434h663zM911 777q-110 0 -190 -103q-62 -80 -62 -204
q0 -76 37 -108q44 -39 112 -39q126 0 202 125q52 84 52 187q0 142 -151 142z" />
    <glyph glyph-name="e" unicode="e" horiz-adv-x="1680" vert-adv-y="2457" 
d="M1588 386l-206 -317q-170 -37 -275 -56q-238 -42 -452 -42q-353 0 -522 145q-128 110 -128 317q0 141 50 279q109 296 399 399q194 69 521 69q266 0 399 -52q270 -106 270 -414q0 -103 -43 -265h-907q-8 -37 -8 -56q0 -37 16 -54q45 -46 206 -46q151 0 430 44
q130 20 250 49zM1128 713q8 40 8 62q0 49 -30 84q-37 45 -128 45q-189 0 -258 -191h408z" />
    <glyph glyph-name="f" unicode="f" horiz-adv-x="1257" vert-adv-y="2457" 
d="M693 0h-663l97 458h-159l97 458h160l44 208q29 135 104 203q89 81 260 109q108 17 393 17q146 0 381 -13l-77 -358q-120 9 -184 9q-101 0 -156 -16q-73 -21 -89 -98l-13 -61h407l-97 -458h-407z" />
    <glyph glyph-name="g" unicode="g" horiz-adv-x="1802" vert-adv-y="2457" 
d="M1841 1151l-199 -935q-38 -183 -118 -279q-72 -87 -173 -131q-226 -101 -793 -101q-281 0 -597 28l30 314q237 -58 510 -58q181 0 275 25q128 34 172 104q16 25 26 73q-89 -46 -163 -67q-128 -38 -310 -38q-217 0 -327 67q-89 53 -129 153q-31 77 -31 166q0 158 68 330
q99 247 277 320q141 58 371 58q186 0 299 -58q58 -30 120 -107l29 136h663zM915 855q-110 0 -190 -103q-62 -80 -62 -204q0 -76 37 -108q44 -39 113 -39q125 0 201 125q52 84 52 187q0 142 -151 142z" />
    <glyph glyph-name="h" unicode="h" horiz-adv-x="1788" vert-adv-y="2457" 
d="M1593 0h-663l119 563q9 41 9 68q0 90 -134 90q-176 0 -212 -173l-117 -548h-663l303 1424h663l-95 -447q115 109 185 141q133 62 353 62q144 0 226 -35q192 -80 192 -299q0 -64 -14 -130z" />
    <glyph glyph-name="i" unicode="i" horiz-adv-x="800" vert-adv-y="2457" 
d="M595 0h-663l249 1171q122 -20 322 -20q211 0 341 20zM893 1401l-27 -126q-9 -41 -28 -50q-18 -8 -66 -8h-478q-45 0 -60 9q-12 7 -12 25q0 12 2 24l27 126q8 37 24 47q17 11 70 11h479q44 0 60 -9q12 -7 12 -24q0 -10 -3 -25z" />
    <glyph glyph-name="j" unicode="j" horiz-adv-x="853" vert-adv-y="2457" 
d="M-221 -267l69 326q43 -6 54 -6q64 0 97 52q12 20 34 121l200 945q124 -20 316 -20q213 0 347 20l-212 -998q-32 -152 -64 -221q-56 -121 -164 -171q-117 -54 -436 -54q-93 0 -241 6zM945 1401l-26 -126q-8 -37 -24 -47q-16 -11 -70 -11h-479q-45 0 -60 9q-12 7 -12 25
q0 9 3 24l27 126q9 41 29 50q17 8 65 8h478q45 0 61 -9q12 -7 12 -24q0 -8 -4 -25z" />
    <glyph glyph-name="k" unicode="k" horiz-adv-x="1708" vert-adv-y="2457" 
d="M1531 0h-688l-165 387l-83 -387h-663l303 1424h663l-159 -746l349 473h769l-559 -584z" />
    <glyph glyph-name="l" unicode="l" horiz-adv-x="800" vert-adv-y="2457" 
d="M595 0h-663l303 1424h663z" />
    <glyph glyph-name="m" unicode="m" horiz-adv-x="2726" vert-adv-y="2457" 
d="M2531 0h-663l117 554q13 60 13 83q0 83 -119 83q-95 0 -139 -44q-39 -39 -58 -131l-116 -545h-663l112 529q9 41 9 86q0 53 -25 71q-31 23 -102 23q-84 0 -125 -35t-61 -127l-116 -547h-663l245 1151h621l-40 -190q94 100 179 146q136 73 354 73q255 0 348 -98
q48 -50 65 -155q85 121 188 177q138 76 359 76q225 0 342 -82q108 -76 108 -238q0 -58 -17 -137z" />
    <glyph glyph-name="n" unicode="n" horiz-adv-x="1788" vert-adv-y="2457" 
d="M1593 0h-663l119 563q9 41 9 64q0 50 -45 76q-32 18 -89 18q-92 0 -141 -39q-51 -40 -71 -134l-117 -548h-663l245 1151h663l-37 -174q106 110 219 153q132 50 321 50q418 0 418 -316q0 -72 -16 -148z" />
    <glyph glyph-name="o" unicode="o" horiz-adv-x="1706" vert-adv-y="2457" 
d="M1003 1190q273 0 402 -55q193 -82 252 -260q20 -61 20 -135q0 -129 -48 -272q-111 -326 -381 -429q-204 -78 -539 -78q-304 0 -464 79q-238 118 -238 384q0 156 54 308q65 181 189 283q154 125 397 154q173 21 356 21zM900 800q-102 0 -162 -47q-114 -89 -114 -276
q0 -150 165 -150q94 0 155 50q69 58 99 149q26 79 26 142q0 132 -169 132z" />
    <glyph glyph-name="p" unicode="p" horiz-adv-x="1789" vert-adv-y="2457" 
d="M-126 -273l303 1424h663l-34 -161q105 95 184 132q124 58 299 58q215 0 331 -84q144 -106 144 -321q0 -141 -53 -319q-80 -270 -228 -377q-151 -109 -400 -109q-186 0 -309 56q-62 29 -148 120l-89 -419h-663zM942 777q-110 0 -190 -103q-62 -80 -62 -204q0 -75 37 -108
q44 -39 113 -39q124 0 201 124q52 84 52 189q0 141 -151 141z" />
    <glyph glyph-name="q" unicode="q" horiz-adv-x="1789" vert-adv-y="2457" 
d="M1526 -273h-663l89 419q-110 -103 -196 -135q-109 -40 -295 -40q-207 0 -298 56q-74 44 -117 125q-51 96 -51 212q0 167 67 370q95 287 282 371q165 75 363 75q187 0 305 -73q54 -34 120 -117l34 161h663zM911 777q-110 0 -190 -103q-62 -80 -62 -204q0 -76 37 -108
q44 -39 112 -39q126 0 202 125q52 84 52 187q0 142 -151 142z" />
    <glyph glyph-name="r" unicode="r" horiz-adv-x="1221" vert-adv-y="2457" 
d="M595 0h-663l245 1151h618l-62 -293q47 110 85 164q67 94 149 128q73 31 212 31q60 0 141 -10l-136 -641h-42l-93 1q-183 0 -285 -65q-62 -40 -87 -104q-10 -26 -21 -74z" />
    <glyph glyph-name="s" unicode="s" horiz-adv-x="1495" vert-adv-y="2457" 
d="M1515 1152l-77 -363q-224 26 -479 26q-192 0 -226 -16q-30 -15 -30 -41q0 -28 57 -28l118 2q26 0 273 -4q266 -5 266 -242q0 -106 -44 -206q-92 -211 -339 -269q-169 -40 -442 -40q-255 0 -615 42l45 338q316 -39 505 -39q177 0 219 5q46 5 46 48q0 26 -39 26
q-23 0 -62 -1q-44 -1 -65 -1q-344 0 -449 66q-120 77 -120 245q0 99 40 190q66 152 211 219q151 71 593 71q357 0 614 -28z" />
    <glyph glyph-name="t" unicode="t" horiz-adv-x="1303" vert-adv-y="2457" 
d="M1161 345l-152 -323q-260 -51 -536 -51q-153 0 -230 29q-144 55 -144 199q0 41 8 80l88 412h-198l50 233l590 441h364l-45 -214h455l-98 -460h-455l-50 -237q-7 -31 -7 -53q0 -26 11 -43q16 -23 106 -24q54 -1 70 -1q79 0 173 12z" />
    <glyph glyph-name="u" unicode="u" horiz-adv-x="1716" vert-adv-y="2457" 
d="M1766 1151l-148 -698q-56 -259 -227 -358q-216 -124 -679 -124q-432 0 -600 134q-105 83 -105 241q0 51 12 107l148 698h663l-140 -660q-14 -66 -14 -86q0 -86 110 -86q80 0 124 49q28 30 38 65q6 19 14 58l141 660h663z" />
    <glyph glyph-name="v" unicode="v" horiz-adv-x="1624" vert-adv-y="2457" 
d="M1136 0h-919l-150 1151h681l22 -716l322 716h681z" />
    <glyph glyph-name="w" unicode="w" horiz-adv-x="2446" vert-adv-y="2457" 
d="M1994 0h-752l-41 542l-263 -542h-780l-91 1151h678l8 -609l286 609h564l33 -609l270 609h689z" />
    <glyph glyph-name="x" unicode="x" horiz-adv-x="1761" vert-adv-y="2457" 
d="M1639 0h-712l-109 311l-247 -311h-707l525 580l-321 571h748l114 -314l241 314h740l-551 -571z" />
    <glyph glyph-name="y" unicode="y" horiz-adv-x="1707" vert-adv-y="2457" 
d="M1166 1151h691l-622 -913q-170 -259 -206 -304q-83 -103 -162 -145q-114 -62 -360 -62h-612l77 362h423l-327 1062h689l101 -571z" />
    <glyph glyph-name="z" unicode="z" horiz-adv-x="1448" vert-adv-y="2457" 
d="M1270 0h-1366l57 267l637 419h-529l99 465h1327l-76 -361l-566 -393h502z" />
    <glyph glyph-name="braceleft" unicode="{" horiz-adv-x="632" vert-adv-y="2457" 
d="M353 683q41 -42 54 -69q12 -27 12 -63q0 -43 -9 -86l-23 -109q-11 -50 -11 -67q0 -29 26 -36q26 -8 91 -8q13 0 41 1l-64 -300q-46 -1 -118 -4q-37 -2 -85 -2q-95 0 -138 7q-72 12 -107 71q-22 37 -22 88q0 37 9 80l45 211q9 42 9 73q0 58 -71 71l64 302q45 10 70 33
q20 19 29 37q2 4 17 47l4 9l44 207q34 161 117 208q59 33 130 38q43 3 120 3q40 0 113 -3q38 -2 83 -3l-64 -301q-32 1 -45 1q-72 0 -97 -12q-30 -14 -41 -53q-3 -12 -11 -47l-23 -105q-23 -112 -66 -166q-17 -20 -83 -53z" />
    <glyph glyph-name="glyph95" vert-adv-y="2457" 
 />
    <glyph glyph-name="braceright" unicode="}" horiz-adv-x="632" vert-adv-y="2457" 
d="M296 683q-41 41 -54 68q-12 27 -12 63q0 42 9 87l23 108q2 7 5 19q7 30 7 48q0 30 -26 37q-27 8 -92 8q-15 0 -41 -1l64 299q46 1 118 4q38 2 85 2q95 0 138 -7q71 -12 107 -71q22 -37 22 -88q0 -37 -9 -80l-45 -211q-9 -42 -9 -73q0 -58 71 -71l-64 -302q-45 -9 -70 -33
q-20 -18 -29 -36q-2 -4 -17 -47l-4 -9l-44 -207q-34 -162 -117 -209q-45 -25 -92.5 -33t-156.5 -8q-42 0 -114 3q-38 2 -83 3l64 301q25 -1 45 -1q72 0 98 12q29 13 40 54q4 13 11 47l23 105q23 112 66 165q17 22 83 54z" />
    <glyph glyph-name="glyph97" vert-adv-y="2457" 
 />
    <glyph glyph-name="Adieresis" unicode="&#xc4;" horiz-adv-x="1897" vert-adv-y="2457" 
d="M1197 1260l52 243h302l-52 -243h-302zM654 1260l52 243h302l-51 -243h-303zM622 1365l-35 -164h412l35 164h131l-35 -164h412l35 164h85l140 -1365h-708l-11 177h-457l-85 -177h-718l727 1365h72zM1080 549l-48 431l-240 -431h288z" />
    <glyph glyph-name="Aring" unicode="&#xc5;" horiz-adv-x="1897" vert-adv-y="2457" 
d="M702 1365q-34 -65 -34 -127q0 -80 60 -127q81 -63 303 -63q271 0 380 98q87 79 87 190q0 10 -2 29h166l140 -1365h-708l-11 176h-457l-86 -176h-717l727 1365h152zM1080 548l-48 432l-240 -432h288zM1135 1527q215 0 280 -67q35 -36 35 -91q0 -253 -405 -253
q-215 0 -280 67q-35 36 -35 91q0 253 405 253zM1113 1421q-72 0 -105 -51q-24 -37 -24 -93q0 -64 87 -64q71 0 104 51q24 36 24 93q0 64 -86 64z" />
    <glyph glyph-name="Ccedilla" unicode="&#xc7;" horiz-adv-x="1710" vert-adv-y="2457" 
d="M1073 91l-326 -475h-292l245 475h373zM1044 -28l131 178h-502l-89 -163q-108 13 -158.5 26.5t-111.5 47.5q-184 99 -249 300q-28 84 -28 186q0 154 60 307q84 214 243 344q240 196 760 196q303 0 715 -64l-115 -534q-292 52 -515 52q-247 0 -341 -89q-77 -73 -77 -184
q0 -57 50 -93q65 -47 297 -47q244 0 498 55l-101 -471q-249 -39 -467 -47z" />
    <glyph glyph-name="Eacute" unicode="&#xc9;" horiz-adv-x="1716" vert-adv-y="2457" 
d="M1231 1260h-479l214 243h480zM779 1365l-156 -164h614l156 164h408l-93 -439h-864l-27 -125h864l-69 -327h-864l-25 -116h864l-76 -358h-1566l290 1365h544z" />
    <glyph glyph-name="Ntilde" unicode="&#xd1;" horiz-adv-x="1921" vert-adv-y="2457" 
d="M658 1365q-35 -46 -75 -147h263q28 44 65 44q28 0 83 -14l214 -454l87 408q149 28 265 163h433l-291 -1365h-617l-347 611l-130 -611h-663l290 1365h423zM1408 1489h169q-37 -68 -83 -115q-112 -116 -237 -116q-55 0 -168 36q-112 35 -158 35q-59 0 -98 -48h-164
q34 73 76 118q99 107 216 107q61 0 181 -37q117 -36 154 -36q70 0 112 56z" />
    <glyph glyph-name="Odieresis" unicode="&#xd6;" horiz-adv-x="1968" vert-adv-y="2457" 
d="M693 1260l52 243h302l-51 -243h-303zM1236 1260l51 243h303l-52 -243h-302zM656 1341l-30 -140h412l43 202q48 1 65 1q18 0 66 -1l-43 -202h411l30 140q107 -39 177 -100q167 -146 167 -382q0 -173 -67 -351q-83 -220 -230 -340q-253 -207 -822 -207q-331 0 -526 96
q-189 92 -248 259q-28 80 -28 190q0 184 68 360q119 312 402 425q66 27 153 50zM1054 941q-123 0 -205 -82q-69 -69 -94 -194q-14 -71 -14 -128q0 -96 42 -136q47 -46 136 -46q162 0 252 166q28 52 47 125q20 78 20 135q0 160 -184 160z" />
    <glyph glyph-name="Udieresis" unicode="&#xdc;" horiz-adv-x="1848" vert-adv-y="2457" 
d="M633 1260l52 243h302l-51 -243h-303zM1176 1260l51 243h303l-52 -243h-302zM601 1365l-35 -164h337l-144 -676q-12 -58 -12 -91q0 -32 22 -48q35 -26 94 -26q81 0 128 49q31 31 49 116l143 676h337l35 164h365l-175 -826q-48 -226 -114 -312q-196 -256 -848 -256
q-264 0 -423 45q-324 92 -324 323q0 86 28 220l172 806h365z" />
    <glyph glyph-name="aacute" unicode="&#xe1;" horiz-adv-x="1789" vert-adv-y="2457" 
d="M1274 1270h-495l220 232h496zM1584 0h-663l31 146q-131 -109 -213 -139q-97 -36 -268 -36q-217 0 -308 55q-74 45 -117 126q-51 97 -51 212q0 167 67 370q95 287 282 371q166 75 362 75q177 0 294 -66q56 -32 132 -124l34 161h663zM911 777q-110 0 -190 -103
q-62 -80 -62 -204q0 -76 37 -108q44 -39 112 -39q126 0 202 125q52 84 52 187q0 142 -151 142z" />
    <glyph glyph-name="agrave" unicode="&#xe0;" horiz-adv-x="1789" vert-adv-y="2457" 
d="M803 1270l-122 232h495l122 -232h-495zM1584 0h-663l31 146q-131 -109 -213 -139q-97 -36 -268 -36q-217 0 -308 55q-74 45 -117 126q-51 97 -51 212q0 167 67 370q95 287 282 371q166 75 362 75q177 0 294 -66q56 -32 132 -124l34 161h663zM911 777q-110 0 -190 -103
q-62 -80 -62 -204q0 -76 37 -108q44 -39 112 -39q126 0 202 125q52 84 52 187q0 142 -151 142z" />
    <glyph glyph-name="acircumflex" unicode="&#xe2;" horiz-adv-x="1789" vert-adv-y="2457" 
d="M1048 1445l-129 -175h-320l193 232h537l94 -232h-319zM1584 0h-663l31 146q-131 -109 -213 -139q-97 -36 -268 -36q-217 0 -308 55q-74 45 -117 126q-51 97 -51 212q0 167 67 370q95 287 282 371q166 75 362 75q177 0 294 -66q56 -32 132 -124l34 161h663zM911 777
q-110 0 -190 -103q-62 -80 -62 -204q0 -76 37 -108q44 -39 112 -39q126 0 202 125q52 84 52 187q0 142 -151 142z" />
    <glyph glyph-name="adieresis" unicode="&#xe4;" horiz-adv-x="1789" vert-adv-y="2457" 
d="M626 1270l50 232h316l-49 -232h-317zM1079 1270l49 232h316l-49 -232h-316zM1584 0h-663l31 146q-131 -109 -213 -139q-97 -36 -268 -36q-217 0 -308 55q-74 45 -117 126q-51 97 -51 212q0 167 67 370q95 287 282 371q166 75 362 75q177 0 294 -66q56 -32 132 -124
l34 161h663zM911 777q-110 0 -190 -103q-62 -80 -62 -204q0 -76 37 -108q44 -39 112 -39q126 0 202 125q52 84 52 187q0 142 -151 142z" />
    <glyph glyph-name="atilde" unicode="&#xe3;" horiz-adv-x="1789" vert-adv-y="2457" 
d="M1356 1486h181q-35 -74 -80 -120q-101 -100 -245 -100q-57 0 -172 33q-111 32 -156 32q-43 0 -93 -44h-176q31 77 74 121q91 94 222 94q63 0 185 -34q118 -33 154 -33q57 0 106 51zM1584 0h-663l31 146q-131 -109 -213 -139q-97 -36 -268 -36q-217 0 -308 55
q-74 45 -117 126q-51 97 -51 212q0 167 67 370q95 287 282 371q166 75 362 75q177 0 294 -66q56 -32 132 -124l34 161h663zM911 777q-110 0 -190 -103q-62 -80 -62 -204q0 -76 37 -108q44 -39 112 -39q126 0 202 125q52 84 52 187q0 142 -151 142z" />
    <glyph glyph-name="aring" unicode="&#xe5;" horiz-adv-x="1789" vert-adv-y="2457" 
d="M646 1177q18 -67 77 -98q94 -50 282 -50q49 0 104 4q12 -18 27 -43l10 47q178 21 261 114h426l-245 -1151h-663l31 146q-103 -88 -189 -123q-130 -52 -321 -52q-243 0 -346 97t-103 282q0 179 70 381q72 208 204 313q138 110 375 133zM912 777q-120 0 -189 -100
q-58 -84 -58 -199q0 -77 41 -116q42 -39 110 -39q72 0 134 44q61 45 95 144q20 59 20 113q0 153 -153 153zM1097 1455q213 0 278 -59q35 -32 35 -82q0 -216 -391 -216q-313 0 -313 139q0 98 78 154q90 64 313 64zM1078 1354q-111 0 -111 -113q0 -51 74 -51q111 0 111 114
q0 50 -74 50z" />
    <glyph glyph-name="ccedilla" unicode="&#xe7;" horiz-adv-x="1478" vert-adv-y="2457" 
d="M928 104l-335 -457h-319l250 457h404zM876 -27l130 177h-502l-86 -157q-127 23 -206 67q-203 114 -203 385q0 155 61 305q72 176 194 268q150 115 462 150q128 14 254 14q250 0 559 -59l-87 -451q-253 40 -431 40q-180 0 -249 -46q-102 -68 -102 -167q0 -126 208 -126
q191 0 525 65l-91 -384q-220 -64 -436 -81z" />
    <glyph glyph-name="eacute" unicode="&#xe9;" horiz-adv-x="1680" vert-adv-y="2457" 
d="M1236 1270h-495l221 232h495zM1588 386l-206 -317q-170 -37 -275 -56q-238 -42 -452 -42q-353 0 -522 145q-128 110 -128 317q0 141 50 279q109 296 399 399q194 69 521 69q266 0 399 -52q270 -106 270 -414q0 -103 -43 -265h-907q-8 -37 -8 -56q0 -37 16 -54
q45 -46 206 -46q151 0 430 44q130 20 250 49zM1128 713q8 40 8 62q0 49 -30 84q-37 45 -128 45q-189 0 -258 -191h408z" />
    <glyph glyph-name="egrave" unicode="&#xe8;" horiz-adv-x="1680" vert-adv-y="2457" 
d="M711 1270l-122 232h495l122 -232h-495zM1588 386l-206 -317q-170 -37 -275 -56q-238 -42 -452 -42q-353 0 -522 145q-128 110 -128 317q0 141 50 279q109 296 399 399q194 69 521 69q266 0 399 -52q270 -106 270 -414q0 -103 -43 -265h-907q-8 -37 -8 -56q0 -37 16 -54
q45 -46 206 -46q151 0 430 44q130 20 250 49zM1128 713q8 40 8 62q0 49 -30 84q-37 45 -128 45q-189 0 -258 -191h408z" />
    <glyph glyph-name="ecircumflex" unicode="&#xea;" horiz-adv-x="1680" vert-adv-y="2457" 
d="M1011 1445l-130 -175h-320l194 232h536l95 -232h-320zM1588 386l-206 -317q-170 -37 -275 -56q-238 -42 -452 -42q-353 0 -522 145q-128 110 -128 317q0 141 50 279q109 296 399 399q194 69 521 69q266 0 399 -52q270 -106 270 -414q0 -103 -43 -265h-907q-8 -37 -8 -56
q0 -37 16 -54q45 -46 206 -46q151 0 430 44q130 20 250 49zM1128 713q8 40 8 62q0 49 -30 84q-37 45 -128 45q-189 0 -258 -191h408z" />
    <glyph glyph-name="edieresis" unicode="&#xeb;" horiz-adv-x="1680" vert-adv-y="2457" 
d="M589 1270l49 232h317l-50 -232h-316zM1042 1270l49 232h316l-49 -232h-316zM1588 386l-206 -317q-170 -37 -275 -56q-238 -42 -452 -42q-353 0 -522 145q-128 110 -128 317q0 141 50 279q109 296 399 399q194 69 521 69q266 0 399 -52q270 -106 270 -414q0 -103 -43 -265
h-907q-8 -37 -8 -56q0 -37 16 -54q45 -46 206 -46q151 0 430 44q130 20 250 49zM1128 713q8 40 8 62q0 49 -30 84q-37 45 -128 45q-189 0 -258 -191h408z" />
    <glyph glyph-name="iacute" unicode="&#xed;" horiz-adv-x="800" vert-adv-y="2457" 
d="M796 1270h-495l221 232h495zM595 0h-663l245 1151h663z" />
    <glyph glyph-name="igrave" unicode="&#xec;" horiz-adv-x="800" vert-adv-y="2457" 
d="M271 1270l-122 232h495l122 -232h-495zM595 0h-663l245 1151h663z" />
    <glyph glyph-name="icircumflex" unicode="&#xee;" horiz-adv-x="800" vert-adv-y="2457" 
d="M571 1445l-130 -175h-320l194 232h536l95 -232h-320zM595 0h-663l245 1151h663z" />
    <glyph glyph-name="idieresis" unicode="&#xef;" horiz-adv-x="800" vert-adv-y="2457" 
d="M183 1270l49 232h317l-50 -232h-316zM568 1270l49 232h316l-49 -232h-316zM595 0h-663l245 1151h663z" />
    <glyph glyph-name="ntilde" unicode="&#xf1;" horiz-adv-x="1788" vert-adv-y="2457" 
d="M1336 1486h181q-105 -220 -325 -220q-57 0 -172 33q-111 32 -156 32q-44 0 -93 -44h-176q31 77 74 121q91 94 223 94q62 0 184 -34q118 -33 154 -33q57 0 106 51zM1593 0h-663l119 563q9 41 9 64q0 50 -45 76q-32 18 -89 18q-92 0 -141 -39q-51 -40 -71 -134l-117 -548
h-663l245 1151h663l-37 -174q106 110 219 153q132 50 321 50q418 0 418 -316q0 -72 -16 -148z" />
    <glyph glyph-name="oacute" unicode="&#xf3;" horiz-adv-x="1706" vert-adv-y="2457" 
d="M1249 1270h-495l221 232h495zM1003 1190q273 0 402 -55q193 -82 252 -260q20 -61 20 -135q0 -129 -48 -272q-111 -326 -381 -429q-204 -78 -539 -78q-304 0 -464 79q-238 118 -238 384q0 156 54 308q65 181 189 283q154 125 397 154q173 21 356 21zM900 800
q-102 0 -162 -47q-114 -89 -114 -276q0 -150 165 -150q94 0 155 50q69 58 99 149q26 79 26 142q0 132 -169 132z" />
    <glyph glyph-name="ograve" unicode="&#xf2;" horiz-adv-x="1706" vert-adv-y="2457" 
d="M724 1270l-122 232h495l122 -232h-495zM1003 1190q273 0 402 -55q193 -82 252 -260q20 -61 20 -135q0 -129 -48 -272q-111 -326 -381 -429q-204 -78 -539 -78q-304 0 -464 79q-238 118 -238 384q0 156 54 308q65 181 189 283q154 125 397 154q173 21 356 21zM900 800
q-102 0 -162 -47q-114 -89 -114 -276q0 -150 165 -150q94 0 155 50q69 58 99 149q26 79 26 142q0 132 -169 132z" />
    <glyph glyph-name="ocircumflex" unicode="&#xf4;" horiz-adv-x="1706" vert-adv-y="2457" 
d="M1024 1445l-130 -175h-319l193 232h536l95 -232h-320zM1003 1190q273 0 402 -55q193 -82 252 -260q20 -61 20 -135q0 -129 -48 -272q-111 -326 -381 -429q-204 -78 -539 -78q-304 0 -464 79q-238 118 -238 384q0 156 54 308q65 181 189 283q154 125 397 154
q173 21 356 21zM900 800q-102 0 -162 -47q-114 -89 -114 -276q0 -150 165 -150q94 0 155 50q69 58 99 149q26 79 26 142q0 132 -169 132z" />
    <glyph glyph-name="odieresis" unicode="&#xf6;" horiz-adv-x="1706" vert-adv-y="2457" 
d="M602 1270l50 232h316l-49 -232h-317zM1055 1270l49 232h316l-49 -232h-316zM1003 1190q273 0 402 -55q193 -82 252 -260q20 -61 20 -135q0 -129 -48 -272q-111 -326 -381 -429q-204 -78 -539 -78q-304 0 -464 79q-238 118 -238 384q0 156 54 308q65 181 189 283
q154 125 397 154q173 21 356 21zM900 800q-102 0 -162 -47q-114 -89 -114 -276q0 -150 165 -150q94 0 155 50q69 58 99 149q26 79 26 142q0 132 -169 132z" />
    <glyph glyph-name="otilde" unicode="&#xf5;" horiz-adv-x="1706" vert-adv-y="2457" 
d="M1290 1486h182q-35 -74 -81 -120q-100 -100 -245 -100q-56 0 -172 33q-111 32 -155 32t-94 -44h-176q32 77 75 121q90 94 222 94q63 0 185 -34q117 -33 154 -33q56 0 105 51zM1003 1190q273 0 402 -55q193 -82 252 -260q20 -61 20 -135q0 -129 -48 -272
q-111 -326 -381 -429q-204 -78 -539 -78q-304 0 -464 79q-238 118 -238 384q0 156 54 308q65 181 189 283q154 125 397 154q173 21 356 21zM900 800q-102 0 -162 -47q-114 -89 -114 -276q0 -150 165 -150q94 0 155 50q69 58 99 149q26 79 26 142q0 132 -169 132z" />
    <glyph glyph-name="uacute" unicode="&#xfa;" horiz-adv-x="1716" vert-adv-y="2457" 
d="M1255 1270h-496l221 232h495zM1766 1151l-148 -698q-56 -259 -227 -358q-216 -124 -679 -124q-432 0 -600 134q-105 83 -105 241q0 51 12 107l148 698h663l-140 -660q-14 -66 -14 -86q0 -86 110 -86q80 0 124 49q28 30 38 65q6 19 14 58l141 660h663z" />
    <glyph glyph-name="ugrave" unicode="&#xf9;" horiz-adv-x="1716" vert-adv-y="2457" 
d="M729 1270l-122 232h495l122 -232h-495zM1766 1151l-148 -698q-56 -259 -227 -358q-216 -124 -679 -124q-432 0 -600 134q-105 83 -105 241q0 51 12 107l148 698h663l-140 -660q-14 -66 -14 -86q0 -86 110 -86q80 0 124 49q28 30 38 65q6 19 14 58l141 660h663z" />
    <glyph glyph-name="ucircumflex" unicode="&#xfb;" horiz-adv-x="1716" vert-adv-y="2457" 
d="M1029 1445l-129 -175h-320l193 232h536l95 -232h-320zM1766 1151l-148 -698q-56 -259 -227 -358q-216 -124 -679 -124q-432 0 -600 134q-105 83 -105 241q0 51 12 107l148 698h663l-140 -660q-14 -66 -14 -86q0 -86 110 -86q80 0 124 49q28 30 38 65q6 19 14 58l141 660
h663z" />
    <glyph glyph-name="udieresis" unicode="&#xfc;" horiz-adv-x="1716" vert-adv-y="2457" 
d="M607 1270l50 232h316l-49 -232h-317zM1060 1270l49 232h317l-50 -232h-316zM1766 1151l-148 -698q-56 -259 -227 -358q-216 -124 -679 -124q-432 0 -600 134q-105 83 -105 241q0 51 12 107l148 698h663l-140 -660q-14 -66 -14 -86q0 -86 110 -86q80 0 124 49q28 30 38 65
q6 19 14 58l141 660h663z" />
    <glyph glyph-name="dagger" unicode="&#x2020;" horiz-adv-x="1119" vert-adv-y="2457" 
d="M1185 1081l-75 -352h-332l-167 -788h-402l167 788h-330l75 352h330l73 343h402l-73 -343h332z" />
    <glyph glyph-name="degree" unicode="&#xb0;" horiz-adv-x="770" vert-adv-y="2457" 
d="M545 1391q151 0 234 -113q50 -69 50 -160q0 -165 -123 -290q-137 -141 -313 -141q-154 0 -234 115q-49 71 -49 164q0 76 37 156q64 140 195 213q102 56 203 56zM499 1192q-80 0 -141 -76q-41 -52 -41 -106q0 -41 18 -71q33 -53 100 -53q82 0 144 73q42 49 42 110
q0 43 -21 74q-35 49 -101 49z" />
    <glyph glyph-name="cent" unicode="&#xa2;" horiz-adv-x="1487" vert-adv-y="2457" 
d="M624 100q-136 9 -242 34q-220 50 -303 221q-44 92 -44 215q0 210 103 393q83 148 202 214q192 108 540 127l53 247h168l-51 -243q220 -3 515 -58l-86 -452q-250 40 -429 40q-79 0 -134 -6q-118 -15 -181 -100q-39 -52 -39 -107q0 -125 208 -125q197 0 525 65l-91 -384
q-294 -86 -546 -86l-55 -261h-169z" />
    <glyph glyph-name="sterling" unicode="&#xa3;" horiz-adv-x="1591" vert-adv-y="2457" 
d="M1270 449l230 -172q-113 -129 -191 -177q-96 -58 -220.5 -92t-245.5 -34q-82 0 -139 16q-19 5 -175 60q-142 49 -208 49q-64 0 -131 -38q-45 -26 -120 -90l-183 203q76 123 145 185q76 67 215 90l-2 139h-170l34 163h132l1 49q3 140 76 293q95 199 352 271q145 41 362 41
q233 0 346 -50q95 -42 153 -121q74 -103 74 -242q0 -32 -8 -97l-507 -31q23 108 23 152q0 74 -94 74q-117 0 -165 -143q-15 -43 -39 -196h251l-35 -163h-256q-21 -56 -59 -110q74 -34 141 -74q58 -35 92 -47t89 -12q64 0 116 23q44 18 116 81z" />
    <glyph glyph-name="section" unicode="&#xa7;" horiz-adv-x="1155" vert-adv-y="2457" 
d="M1221 1350l-59 -275q-314 32 -408 32q-239 0 -239 -72q0 -22 25 -31q30 -11 242 -28q170 -14 219 -28q77 -21 110 -94q20 -45 20 -98q0 -147 -131 -283q48 -66 48 -141q0 -110 -76 -228q-71 -112 -243 -153q-94 -22 -290 -22q-229 0 -492 53l58 275q304 -30 417 -30
q229 0 229 74q0 17 -13 25q-14 9 -174 26q-223 29 -262 37q-72 15 -106 47q-60 56 -60 155q0 143 140 270q-55 97 -55 165q0 84 61 184q71 117 211 159q114 35 321 35q254 0 507 -54zM405 752q-25 -39 -25 -69q0 -39 41 -53q15 -5 166 -21l58 -8q78 -9 106 -15q24 39 24 66
q0 32 -20 46q-19 14 -75 21q-10 1 -139 16q-87 9 -136 17z" />
    <glyph glyph-name="glyph135" vert-adv-y="2457" 
 />
    <glyph glyph-name="paragraph" unicode="&#xb6;" horiz-adv-x="1076" vert-adv-y="2457" 
d="M235 -232l190 897q-15 -1 -24 -1q-134 0 -222 83q-74 70 -74 187q0 105 53 208q57 111 148 158q94 49 205 61q43 4 154 4h483l-340 -1597h-273l306 1440h-27l-306 -1440h-273z" />
    <glyph glyph-name="germandbls" unicode="&#xdf;" horiz-adv-x="1666" vert-adv-y="2457" 
d="M615 0h-683l236 1109q27 129 82 188q79 84 247 121q158 35 492 35q319 0 448 -40q127 -40 172 -122q27 -49 27 -119q0 -117 -59 -220q-51 -89 -126 -126q-14 -7 -47 -19q197 -41 197 -243q0 -109 -39 -237q-44 -143 -105 -216q-79 -94 -226 -111q-89 -10 -217 -10
q-153 0 -291 10l75 350q23 -2 37 -2q68 0 104 54q21 32 21 72q0 62 -77 62q-16 0 -47 -4l94 439q54 7 80 45q21 33 21 69q0 55 -76 55q-70 0 -96 -40q-15 -23 -32 -100z" />
    <glyph glyph-name="registered" unicode="&#xae;" horiz-adv-x="1686" vert-adv-y="2457" 
d="M1014 1397q211 0 373 -104q164 -105 227 -286q31 -90 31 -188q0 -152 -73 -305q-121 -254 -384 -409q-233 -137 -486 -137q-217 0 -381 102q-166 104 -231 287q-32 91 -32 191q0 150 74 305q123 256 389 409q233 135 493 135zM974 1216q-194 0 -370 -100
q-198 -113 -291 -306q-55 -115 -55 -227q0 -162 105 -280q67 -75 165 -114q101 -40 212 -40q188 0 364 103q196 114 287 305q54 114 54 227q0 162 -102 277q-69 78 -161 114q-102 41 -208 41zM1183 341h-326l-122 216l-46 -216h-310l145 683h576q209 0 209 -156
q0 -95 -76 -165q-70 -66 -185 -78zM765 701h108q65 0 92 31q25 28 25 66q0 44 -67 44h-128z" />
    <glyph glyph-name="copyright" unicode="&#xa9;" horiz-adv-x="1686" vert-adv-y="2457" 
d="M1014 1397q211 0 373 -104q164 -105 227 -286q31 -90 31 -188q0 -152 -73 -305q-121 -254 -384 -409q-233 -137 -486 -137q-217 0 -381 102q-166 104 -231 287q-32 91 -32 191q0 150 74 305q123 256 389 409q233 135 493 135zM974 1216q-194 0 -370 -100
q-198 -113 -291 -306q-55 -115 -55 -227q0 -162 105 -280q67 -75 165 -114q101 -40 212 -40q188 0 364 103q196 114 287 305q54 114 54 227q0 162 -102 277q-69 78 -161 114q-102 41 -208 41zM1185 587l-50 -236q-151 -24 -308 -24q-181 0 -264 30q-167 60 -167 248
q0 83 35 164.5t95 141.5q131 128 399 128q154 0 362 -33l-58 -267q-147 27 -256 27q-128 0 -173 -43q-36 -36 -36 -92q0 -29 26 -48q33 -24 145 -24q124 0 250 28z" />
    <glyph glyph-name="trademark" unicode="&#x2122;" horiz-adv-x="2208" vert-adv-y="2457" 
d="M713 546h-452l103 485h-254l71 334h961l-71 -334h-255zM2119 546h-433l79 375l-213 -375h-250l-57 362l-77 -362h-428l98 458h254l77 361h305l47 -372l206 372h567z" />
    <glyph glyph-name="acute" unicode="&#xb4;" horiz-adv-x="1024" vert-adv-y="2457" 
d="M910 1229h-546l260 273h546z" />
    <glyph glyph-name="dieresis" unicode="&#xa8;" horiz-adv-x="1024" vert-adv-y="2457" 
d="M232 1229l58 273h357l-58 -273h-357zM684 1229l58 273h358l-58 -273h-358z" />
    <glyph glyph-name="glyph143" vert-adv-y="2457" 
 />
    <glyph glyph-name="AE" unicode="&#xc6;" horiz-adv-x="2481" vert-adv-y="2457" 
d="M2277 0h-1412l37 177h-303l-89 -177h-687l796 1365h1948l-93 -439h-708l-27 -125h708l-69 -327h-709l-24 -116h708zM981 549l121 566l-320 -566h199z" />
    <glyph glyph-name="Oslash" unicode="&#xd8;" horiz-adv-x="1968" vert-adv-y="2457" 
d="M14 -29l-61 112l2019 1311l61 -112zM246 78l527 342q36 -40 58 -51q26 -13 88 -13q191 0 275 217q26 66 39 146l657 427q67 -108 67 -264q0 -187 -70 -373q-82 -221 -229 -341q-253 -207 -820 -207q-385 0 -592 117zM752 646l-659 -428q-63 111 -63 265q0 196 72 384
q86 224 252 346q261 191 794 191q377 0 589 -119l-572 -371q-51 27 -114 27q-161 0 -247 -140q-35 -58 -52 -155z" />
    <glyph glyph-name="glyph146" vert-adv-y="2457" 
 />
    <glyph glyph-name="plusminus" unicode="&#xb1;" horiz-adv-x="1092" vert-adv-y="2457" 
d="M72 838h355l78 367h318l-78 -367h358l-66 -310h-358l-40 -190h-318l40 190h-355zM-40 310h1031l-66 -310h-1031z" />
    <glyph glyph-name="glyph148" vert-adv-y="2457" 
 />
    <glyph glyph-name="glyph149" vert-adv-y="2457" 
 />
    <glyph glyph-name="yen" unicode="&#xa5;" horiz-adv-x="1535" vert-adv-y="2457" 
d="M360 366h-327l35 162h328l-37 111h-268l35 162h178l-192 564h690l81 -276l182 276h664l-427 -564h167l-34 -162h-256l-83 -111h315l-35 -162h-313l-78 -366h-702z" />
    <glyph glyph-name="mu" unicode="&#xb5;" horiz-adv-x="1820" vert-adv-y="2457" 
d="M219 1151h663l-141 -660q-13 -63 -13 -86q0 -86 110 -86q79 0 124 49q27 30 38 64q6 20 14 59l140 660h663l-148 -698q-55 -259 -227 -358q-216 -124 -673 -124q-229 0 -416 40l-79 -368h-376z" />
    <glyph glyph-name="glyph152" vert-adv-y="2457" 
 />
    <glyph glyph-name="glyph153" vert-adv-y="2457" 
 />
    <glyph glyph-name="glyph154" vert-adv-y="2457" 
 />
    <glyph glyph-name="glyph155" vert-adv-y="2457" 
 />
    <glyph glyph-name="glyph156" vert-adv-y="2457" 
 />
    <glyph glyph-name="ordfeminine" unicode="&#xaa;" horiz-adv-x="1168" vert-adv-y="2457" 
d="M1095 546h-428l16 75q-54 -42 -103 -61q-81 -31 -202 -31q-145 0 -211 59q-75 68 -75 182q0 99 40 218q58 171 178 223q103 45 229 45q103 0 174 -40q30 -16 84 -57l18 80h427zM664 1004q-63 0 -109 -58q-35 -43 -35 -114q0 -82 87 -82q72 0 115 70q30 47 30 102
q0 82 -88 82z" />
    <glyph glyph-name="ordmasculine" unicode="&#xba;" horiz-adv-x="1132" vert-adv-y="2457" 
d="M718 1262q171 0 252 -32q123 -50 162 -157q14 -40 14 -85q0 -78 -29 -161q-67 -195 -240 -258q-126 -46 -335 -46q-445 0 -445 283q0 93 32 180q62 170 234 232q120 44 355 44zM654 1018q-87 0 -130 -63q-29 -43 -29 -118q0 -85 95 -85q87 0 131 74q32 54 32 118
q0 74 -99 74z" />
    <glyph glyph-name="glyph159" vert-adv-y="2457" 
 />
    <glyph glyph-name="ae" unicode="&#xe6;" horiz-adv-x="2919" vert-adv-y="2457" 
d="M1619 989q73 52 141 93q67 41 121 58t145 26q135 14 264 14q289 0 439 -103q155 -107 155 -352q0 -109 -45 -276h-907q-8 -37 -8 -56q0 -37 16 -54q45 -47 206 -47q151 0 430 44q131 21 250 50l-206 -317q-245 -58 -391 -78.5t-309 -20.5q-207 0 -303 46q-73 35 -172 155
l-36 -171h-488l31 146q-103 -98 -188 -131q-110 -44 -301 -44q-209 0 -300 56q-74 44 -117 125q-51 96 -51 212q0 167 68 371q94 286 282 371q164 74 363 74q186 0 303 -73q53 -34 121 -117l34 161h487zM911 777q-110 0 -190 -103q-62 -80 -62 -204q0 -76 37 -108
q44 -39 113 -39q125 0 201 125q52 84 52 187q0 142 -151 142zM2366 713q9 41 9 61q0 49 -30 85q-37 44 -128 44q-190 0 -259 -190h408z" />
    <glyph glyph-name="oslash" unicode="&#xf8;" horiz-adv-x="1706" vert-adv-y="2457" 
d="M-40 -23l-45 94l1801 1100l45 -93zM1503 1093l-506 -310q-59 17 -105 17q-141 0 -217 -114q-29 -43 -44 -126l-584 -358q-43 83 -43 203q0 167 57 327q64 182 188 283q152 123 397 154q165 21 345 21q294 0 429 -54q42 -17 83 -43zM1061 600l574 350q43 -85 43 -193
q0 -139 -51 -289q-110 -326 -380 -429q-205 -78 -537 -78q-355 0 -526 102l487 298q41 -34 120 -34q144 0 222 132q33 57 48 141z" />
    <glyph glyph-name="questiondown" unicode="&#xbf;" horiz-adv-x="1179" vert-adv-y="2457" 
d="M426 991h527l-50 -54q-161 -172 -193 -209.5t-63 -88.5q-31 -52 -31 -109q0 -32 26 -50q43 -31 181 -31q95 0 240 29l-98 -461q-248 -37 -536 -37q-322 0 -416 106q-55 62 -55 161q0 74 35 160q44 107 256 375q94 120 177 209zM798 1453q103 0 169 -43q59 -38 59 -111
q0 -220 -307 -220q-114 0 -173 33q-60 33 -60 114q0 106 81 166q82 61 231 61z" />
    <glyph glyph-name="exclamdown" unicode="&#xa1;" horiz-adv-x="806" vert-adv-y="2457" 
d="M663 983l-37 -747q-3 -61 -26 -127q-19 -55 -50 -79q-44 -35 -148 -43q-74 -6 -175 -6q-166 0 -218 18q-82 28 -82 114q0 55 26 123l280 747h430zM549 1453q103 0 170 -43q58 -38 58 -110q0 -221 -307 -221q-114 0 -173 33q-60 33 -60 114q0 106 81 166q82 61 231 61z
" />
    <glyph glyph-name="glyph164" vert-adv-y="2457" 
 />
    <glyph glyph-name="glyph165" vert-adv-y="2457" 
 />
    <glyph glyph-name="florin" unicode="&#x192;" horiz-adv-x="1103" vert-adv-y="2457" 
d="M1088 879l-93 -248h-179l-220 -566q-48 -122 -74 -169q-79 -142 -214 -182q-104 -31 -277 -31q-19 0 -129 2q-58 1 -173 2l107 285q22 -1 36 -1q76 0 102 11q27 12 54 78l40 98l185 473h-171l93 248h176l87 223q50 127 87 185q63 97 139 137q116 59 309 59q15 0 113 -2
q96 -2 223 -2l-111 -288q-41 2 -60 2q-73 0 -104 -33q-14 -15 -45 -95l-72 -186h171z" />
    <glyph glyph-name="glyph167" vert-adv-y="2457" 
 />
    <glyph glyph-name="glyph168" vert-adv-y="2457" 
 />
    <glyph glyph-name="guillemotleft" unicode="&#xab;" horiz-adv-x="838" vert-adv-y="2457" 
d="M390 220l38 179l-80 73l21 99l112 75l35 166l336 217l-79 -370l-208 -139l150 -134l-82 -386zM316 0l-322 293l95 447l446 289l-79 -370l-207 -139l149 -134z" />
    <glyph glyph-name="guillemotright" unicode="&#xbb;" horiz-adv-x="838" vert-adv-y="2457" 
d="M292 204l111 71l36 170l96 64l-69 62l37 179l-80 72l44 207l323 -293l-95 -447l-447 -289zM151 1029l322 -293l-95 -447l-446 -289l79 370l207 139l-149 135z" />
    <glyph glyph-name="ellipsis" unicode="&#x2026;" horiz-adv-x="1846" vert-adv-y="2457" 
d="M245 355q113 0 172 -32q60 -34 60 -115q0 -106 -80 -166q-82 -61 -231 -61q-103 0 -170 44q-58 38 -58 109q0 116 85 174q70 47 222 47zM861 355q113 0 171 -32q61 -34 61 -115q0 -106 -81 -166q-81 -61 -231 -61q-103 0 -169 44q-59 38 -59 109q0 221 308 221zM1476 355
q113 0 172 -33q60 -33 60 -114q0 -106 -81 -166q-81 -61 -231 -61q-103 0 -169 44q-59 38 -59 109q0 116 85 174q70 47 223 47z" />
    <glyph glyph-name="glyph172" horiz-adv-x="1638" vert-adv-y="1638" 
 />
    <glyph glyph-name="Agrave" unicode="&#xc0;" horiz-adv-x="1897" vert-adv-y="2457" 
d="M815 1260l-112 243h480l111 -243h-479zM691 1365l87 -164h613l-86 164h357l140 -1365h-708l-11 176h-457l-86 -176h-717l727 1365h141zM1080 548l-48 432l-240 -432h288z" />
    <glyph glyph-name="Atilde" unicode="&#xc3;" horiz-adv-x="1897" vert-adv-y="2457" 
d="M644 1365q-36 -46 -75 -147h262q28 44 65 44q39 0 144 -30q121 -35 182 -35q179 0 323 168h117l140 -1365h-708l-11 176h-457l-86 -176h-717l727 1365h94zM1080 548l-48 432l-240 -432h288zM1386 1485h169q-37 -68 -82 -115q-112 -115 -237 -115q-55 0 -169 36
q-112 35 -157 35q-59 0 -98 -48h-164q33 72 76 118q99 106 215 106q60 0 182 -37q118 -36 154 -36q69 0 111 56z" />
    <glyph glyph-name="Otilde" unicode="&#xd5;" horiz-adv-x="1968" vert-adv-y="2457" 
d="M1426 1488h169q-114 -230 -317 -230q-58 0 -171 36q-111 35 -158 35q-48 0 -98 -48h-164q36 81 73 123q90 101 215 101q64 0 185 -37q118 -36 153 -36q63 0 113 56zM668 1345q-29 -46 -61 -127h263q29 44 64 44q40 0 145 -30q121 -35 181 -35q85 0 154 39q56 32 159 117
q381 -126 381 -494q0 -175 -66 -351q-83 -219 -230 -340q-253 -207 -823 -207q-330 0 -526 96q-189 92 -248 259q-28 80 -28 190q0 184 68 360q120 313 407 427q69 28 160 52zM1054 941q-166 0 -250 -140q-28 -46 -45 -117q-18 -78 -18 -146q0 -97 42 -138q47 -45 136 -45
q163 0 252 166q29 52 48 125q20 78 20 135q0 160 -185 160z" />
    <glyph glyph-name="OE" unicode="&#x152;" horiz-adv-x="3046" vert-adv-y="2457" 
d="M2841 0h-1488l34 159q-103 -78 -191 -117q-156 -71 -410 -71q-389 0 -579 167q-170 149 -170 404q0 169 69 335q138 327 434 435q226 82 546 82q227 0 352 -61q70 -34 170 -133l35 165h1488l-93 -439h-864l-27 -125h864l-69 -327h-864l-25 -116h864zM1053 940
q-111 0 -194 -78q-68 -65 -90 -141q-28 -97 -28 -185q0 -94 42 -134q48 -46 136 -46q162 0 251 166q29 52 48 124q20 77 20 135q0 159 -185 159z" />
    <glyph glyph-name="oe" unicode="&#x153;" horiz-adv-x="2654" vert-adv-y="2457" 
d="M1481 1061q68 38 106 55q170 74 489 74q230 0 342 -53q107 -51 156 -140q50 -91 50 -235q0 -132 -48 -313h-908q-8 -37 -8 -56q0 -37 16 -54q45 -46 207 -46q150 0 429 44q130 20 250 49l-205 -317q-299 -109 -611 -109q-210 0 -323 45q-51 21 -154 96q-73 -38 -138 -68
q-87 -41 -183 -56.5t-259 -15.5q-281 0 -444 80q-158 78 -211 215q-27 71 -27 171q0 155 54 305q65 182 190 283q152 123 396 154q166 21 348 21q257 0 375 -54q55 -25 111 -75zM900 800q-102 0 -162 -47q-114 -88 -114 -275q0 -151 165 -151q94 0 154 50q70 58 100 149
q26 80 26 142q0 132 -169 132zM2103 713q8 41 8 62q0 49 -30 85q-37 44 -128 44q-190 0 -259 -191h409z" />
    <glyph glyph-name="endash" unicode="&#x2013;" horiz-adv-x="1530" vert-adv-y="2457" 
d="M1451 394h-1476l81 382h1476z" />
    <glyph glyph-name="emdash" unicode="&#x2014;" horiz-adv-x="1717" vert-adv-y="2457" 
d="M1715 761l-75 -350h-1662l74 350h1663z" />
    <glyph glyph-name="quotedblleft" unicode="&#x201c;" horiz-adv-x="999" vert-adv-y="2457" 
d="M541 940l265 484h346l-265 -484h-346zM77 940l356 484h345l-264 -484h-437z" />
    <glyph glyph-name="quotedblright" unicode="&#x201d;" horiz-adv-x="999" vert-adv-y="2457" 
d="M1152 1424l-356 -484h-346l356 484h346zM778 1424l-355 -484h-346l264 484h437z" />
    <glyph glyph-name="quoteleft" unicode="&#x2018;" horiz-adv-x="626" vert-adv-y="2457" 
d="M77 940l356 484h345l-264 -484h-437z" />
    <glyph glyph-name="quoteright" unicode="&#x2019;" horiz-adv-x="626" vert-adv-y="2457" 
d="M778 1424l-355 -484h-346l264 484h437z" />
    <glyph glyph-name="divide" unicode="&#xf7;" horiz-adv-x="1092" vert-adv-y="2457" 
d="M72 838h1031l-66 -310h-1031zM673 1246q113 0 171 -32q61 -34 61 -116q0 -105 -80 -166q-82 -61 -232 -61q-103 0 -169 44q-59 38 -59 110q0 116 85 174q70 47 223 47zM513 494q113 0 172 -33q60 -33 60 -114q0 -106 -81 -166q-81 -61 -230 -61q-103 0 -170 44
q-58 38 -58 109q0 116 85 174q70 47 222 47z" />
    <glyph glyph-name="glyph185" vert-adv-y="2457" 
 />
    <glyph glyph-name="ydieresis" unicode="&#xff;" horiz-adv-x="1707" vert-adv-y="2457" 
d="M602 1270l49 232h316l-49 -232h-316zM1054 1270l50 232h316l-49 -232h-317zM1166 1151h691l-622 -913q-170 -259 -206 -304q-83 -103 -162 -145q-114 -62 -360 -62h-612l77 362h423l-327 1062h689l101 -571z" />
    <glyph glyph-name="Ydieresis" unicode="&#x178;" horiz-adv-x="1808" vert-adv-y="2457" 
d="M626 1260l52 243h303l-52 -243h-303zM1169 1260l52 243h302l-51 -243h-303zM594 1365l-35 -164h376l56 -249l152 249h371l35 164h454l-797 -971l-84 -394h-702l83 394l-390 971h481z" />
    <glyph glyph-name="glyph188" vert-adv-y="2457" 
 />
    <glyph glyph-name="Euro" unicode="&#x20ac;" horiz-adv-x="1924" vert-adv-y="2457" 
d="M1022 721h510l-107 -166h-440q6 -45 48 -74q64 -45 295 -45q245 0 497 55l-100 -472q-304 -48 -616 -48q-305 0 -455 43q-99 28 -183 88t-136 138q-87 133 -87 315h-226l105 166h144q67 266 226 426q243 247 816 247q304 0 715 -64l-114 -534q-293 52 -514 52
q-289 0 -378 -127z" />
    <glyph glyph-name="guilsinglleft" unicode="&#x2039;" horiz-adv-x="521" vert-adv-y="2457" 
d="M316 0l-322 293l95 447l446 289l-79 -370l-207 -139l149 -134z" />
    <glyph glyph-name="guilsinglright" unicode="&#x203a;" horiz-adv-x="521" vert-adv-y="2457" 
d="M151 1029l322 -293l-95 -447l-446 -289l79 370l207 139l-149 135z" />
    <glyph glyph-name="fi" unicode="&#xfb01;" horiz-adv-x="1909" vert-adv-y="2457" 
d="M1209 916l-97 -458h-321l-98 -458h-663l97 458h-159l97 458h160l44 208q39 181 169 249q112 58 245 69q135 11 314 11q217 0 324 -9l-75 -356q-61 3 -99 3q-103 0 -157 -16q-73 -21 -89 -98l-13 -61h321zM1705 0h-663l249 1171q122 -20 322 -20q211 0 341 20zM2003 1401
l-27 -126q-9 -41 -29 -50q-17 -8 -65 -8h-478q-46 0 -61 9q-12 7 -12 25q0 9 3 24l27 126q8 37 24 47q17 11 70 11h479q44 0 60 -9q12 -7 12 -24q0 -9 -3 -25z" />
    <glyph glyph-name="fl" unicode="&#xfb02;" horiz-adv-x="1909" vert-adv-y="2457" 
d="M1322 1445l-76 -357q-55 4 -99 4q-103 0 -157 -16q-73 -22 -89 -99l-13 -61h321l-97 -458h-321l-98 -458h-663l97 458h-159l97 458h160l44 208q29 135 104 204q89 81 260 109q109 17 395 17q122 0 294 -9zM1705 0h-663l303 1424h663z" />
    <glyph glyph-name="daggerdbl" unicode="&#x2021;" horiz-adv-x="1119" vert-adv-y="2457" 
d="M868 1149h332l-72 -338h-332l-55 -257h332l-72 -338h-332l-58 -275h-402l58 275h-330l72 338h330l55 257h-330l72 338h330l58 275h402z" />
    <glyph glyph-name="periodcentered" unicode="&#xb7;" horiz-adv-x="615" vert-adv-y="2457" 
d="M334 773q113 0 172 -33q61 -33 61 -115q0 -105 -81 -166t-231 -61q-103 0 -170 44q-58 38 -58 109q0 222 307 222z" />
    <glyph glyph-name="quotesinglbase" unicode="&#x201a;" horiz-adv-x="613" vert-adv-y="2457" 
d="M518 328l-391 -601h-322l249 601h464z" />
    <glyph glyph-name="quotedblbase" unicode="&#x201e;" horiz-adv-x="999" vert-adv-y="2457" 
d="M905 328l-356 -484h-346l356 484h346zM531 328l-355 -484h-346l264 484h437z" />
    <glyph glyph-name="perthousand" unicode="&#x2030;" horiz-adv-x="2558" vert-adv-y="2457" 
d="M657 1371q160 0 239 -37q136 -64 136 -232q0 -150 -106 -269q-72 -81 -184 -112q-91 -25 -239 -25q-168 0 -251 37q-130 58 -130 217q0 162 120 287q75 77 177 107q88 27 238 27zM609 1180q-86 0 -123 -64q-32 -53 -32 -123q0 -82 99 -82q85 0 124 64q31 53 31 123
q0 82 -99 82zM1032 687q-250 -70 -336 -331l-360 -356h-288l689 680q242 67 320 315l374 370h288zM1598 538q-113 -141 -113 -300q0 -71 22 -126q-59 -54 -128 -81q-98 -37 -275 -37q-169 0 -251 37q-131 58 -131 218q0 161 121 286q75 79 176 109q89 26 237 26
q162 0 239 -37q66 -31 103 -95zM1208 479q-85 0 -123 -64q-31 -54 -31 -124q0 -82 98 -82q86 0 124 64q31 54 31 123q0 83 -99 83zM2076 670q160 0 239 -37q136 -64 136 -233q0 -149 -106 -269q-72 -81 -184 -112q-91 -25 -239 -25q-168 0 -250 37q-131 58 -131 217
q0 162 120 287q75 78 176 108q89 27 239 27zM2028 479q-86 0 -123 -64q-32 -54 -32 -124q0 -82 99 -82q86 0 123 64q32 54 32 123q0 83 -99 83z" />
    <glyph glyph-name="Acircumflex" unicode="&#xc2;" horiz-adv-x="1897" vert-adv-y="2457" 
d="M1120 1462l-140 -202h-304l188 243h528l86 -243h-304zM703 1365l-137 -164h435l89 121l38 -121h434l-66 164h166l140 -1365h-708l-11 176h-457l-86 -176h-717l727 1365h153zM1080 548l-48 432l-240 -432h288z" />
    <glyph glyph-name="Ecircumflex" unicode="&#xca;" horiz-adv-x="1716" vert-adv-y="2457" 
d="M1039 1462l-140 -202h-304l188 243h528l86 -243h-304zM622 1365l-137 -164h435l89 121l38 -121h434l-66 164h386l-93 -439h-864l-27 -125h864l-69 -327h-864l-25 -116h864l-76 -358h-1566l290 1365h387z" />
    <glyph glyph-name="Aacute" unicode="&#xc1;" horiz-adv-x="1897" vert-adv-y="2457" 
d="M1342 1260h-480l215 243h479zM893 1365l-156 -164h614l156 164h155l140 -1365h-708l-11 176h-457l-86 -176h-717l727 1365h343zM1080 548l-48 432l-240 -432h288z" />
    <glyph glyph-name="Edieresis" unicode="&#xcb;" horiz-adv-x="1716" vert-adv-y="2457" 
d="M573 1260l52 243h302l-51 -243h-303zM1116 1260l51 243h303l-52 -243h-302zM541 1365l-35 -164h412l35 164h131l-35 -164h412l35 164h305l-93 -439h-864l-27 -125h864l-69 -327h-864l-25 -116h864l-76 -358h-1566l290 1365h306z" />
    <glyph glyph-name="Egrave" unicode="&#xc8;" horiz-adv-x="1716" vert-adv-y="2457" 
d="M761 1260l-112 243h479l112 -243h-479zM643 1365l86 -164h614l-86 164h544l-93 -439h-864l-27 -125h864l-69 -327h-864l-25 -116h864l-76 -358h-1566l290 1365h408z" />
    <glyph glyph-name="Iacute" unicode="&#xcd;" horiz-adv-x="866" vert-adv-y="2457" 
d="M767 1260h-479l215 243h479zM200 1201h574l156 164h7l-290 -1365h-702zM212 1256l23 109h81z" />
    <glyph glyph-name="Icircumflex" unicode="&#xce;" horiz-adv-x="866" vert-adv-y="2457" 
d="M607 1462l-140 -202h-304l188 243h528l86 -243h-304zM200 1201h288l89 120l38 -120h288l-256 -1201h-702z" />
    <glyph glyph-name="Idieresis" unicode="&#xcf;" horiz-adv-x="866" vert-adv-y="2457" 
d="M206 1257l52 246h330l-52 -246h-330zM591 1257l52 246h330l-52 -246h-330zM903 1201l-256 -1201h-702l255 1201h703z" />
    <glyph glyph-name="Igrave" unicode="&#xcc;" horiz-adv-x="866" vert-adv-y="2457" 
d="M360 1260l-111 243h479l112 -243h-480zM243 1365l86 -164h574l-256 -1201h-702l290 1365h8zM857 1365h80l-23 -109z" />
    <glyph glyph-name="Oacute" unicode="&#xd3;" horiz-adv-x="1968" vert-adv-y="2457" 
d="M1383 1260h-480l215 243h479zM960 1396l-185 -195h614l153 161q411 -119 411 -504q0 -175 -66 -350q-83 -219 -230 -340q-253 -207 -823 -207q-330 0 -526 96q-189 92 -248 259q-28 80 -28 190q0 253 120 473q131 241 407 338q164 58 401 79zM1053 941q-123 0 -205 -82
q-68 -69 -93 -194q-15 -73 -15 -128q0 -95 42 -136q48 -46 137 -46q162 0 251 166q29 53 48 125q20 77 20 135q0 160 -185 160z" />
    <glyph glyph-name="Ocircumflex" unicode="&#xd4;" horiz-adv-x="1968" vert-adv-y="2457" 
d="M1158 1462l-140 -202h-304l188 243h528l86 -243h-304zM739 1363l-135 -162h435l89 121l38 -121h434l-66 162q419 -114 419 -505q0 -175 -66 -350q-83 -219 -230 -340q-253 -207 -823 -207q-330 0 -526 96q-189 92 -248 259q-28 80 -28 190q0 183 68 360q124 323 434 439
q89 34 205 58zM1053 941q-123 0 -205 -82q-68 -69 -93 -194q-15 -73 -15 -128q0 -95 42 -136q48 -46 137 -46q162 0 251 166q29 53 48 125q20 77 20 135q0 160 -185 160z" />
    <glyph glyph-name="glyph210" vert-adv-y="2457" 
 />
    <glyph glyph-name="Ograve" unicode="&#xd2;" horiz-adv-x="1968" vert-adv-y="2457" 
d="M853 1260l-112 243h480l111 -243h-479zM731 1361l84 -160h614l-102 195q91 -11 157 -24q170 -33 300 -132q169 -130 169 -382q0 -174 -66 -350q-83 -219 -230 -340q-253 -207 -823 -207q-330 0 -526 96q-189 92 -248 259q-28 80 -28 190q0 183 68 360q123 323 431 438
q87 32 200 57zM1053 941q-123 0 -205 -82q-68 -69 -93 -194q-15 -73 -15 -128q0 -95 42 -136q48 -46 137 -46q162 0 251 166q29 53 48 125q20 77 20 135q0 160 -185 160z" />
    <glyph glyph-name="Uacute" unicode="&#xda;" horiz-adv-x="1848" vert-adv-y="2457" 
d="M1321 1260h-480l215 243h479zM872 1365l-156 -164h187l-144 -676q-12 -58 -12 -91q0 -32 22 -48q35 -26 94 -26q81 0 128 49q31 31 49 116l143 676h147l156 164h434l-175 -826q-48 -226 -114 -312q-196 -256 -848 -256q-264 0 -423 45q-324 92 -324 323q0 86 28 220
l172 806h636z" />
    <glyph glyph-name="Ucircumflex" unicode="&#xdb;" horiz-adv-x="1848" vert-adv-y="2457" 
d="M1099 1462l-140 -202h-305l189 243h528l86 -243h-305zM682 1365l-137 -164h358l-144 -676q-12 -58 -12 -91q0 -32 22 -48q35 -26 94 -26q81 0 128 49q31 31 49 116l143 676h358l-66 164h445l-175 -826q-48 -226 -114 -312q-196 -256 -848 -256q-264 0 -423 45
q-324 92 -324 323q0 86 28 220l172 806h446z" />
    <glyph glyph-name="Ugrave" unicode="&#xd9;" horiz-adv-x="1848" vert-adv-y="2457" 
d="M790 1260l-111 243h479l112 -243h-480zM670 1365l86 -164h147l-144 -676q-12 -58 -12 -91q0 -32 22 -48q35 -26 94 -26q81 0 128 49q31 31 49 116l143 676h187l-86 164h636l-175 -826q-48 -226 -114 -312q-196 -256 -848 -256q-264 0 -423 45q-324 92 -324 323
q0 86 28 220l172 806h434z" />
    <glyph glyph-name="dotlessi" unicode="&#x131;" horiz-adv-x="800" vert-adv-y="2457" 
d="M595 0h-663l245 1151h663z" />
    <glyph glyph-name="circumflex" unicode="&#x2c6;" horiz-adv-x="1024" vert-adv-y="2457" 
d="M669 1381l-112 -152h-369l227 273h560l111 -273h-369z" />
    <glyph glyph-name="tilde" unicode="&#x2dc;" horiz-adv-x="1024" vert-adv-y="2457" 
d="M935 1486h223q-46 -100 -99 -153q-108 -107 -262 -107q-61 0 -177 33q-109 31 -151 31t-82 -44h-213q41 104 90 155q45 47 110 74t133 27q63 0 188 -34q114 -32 148 -32q57 0 92 50z" />
    <glyph glyph-name="macron" unicode="&#xaf;" horiz-adv-x="1024" vert-adv-y="2457" 
d="M1082 1294h-863l44 208h864z" />
    <glyph glyph-name="breve" unicode="&#x2d8;" horiz-adv-x="1024" vert-adv-y="2457" 
d="M322 1502h182q2 -48 24 -71q38 -41 142 -41q107 0 162 40q29 21 53 72h182q-31 -119 -104 -191q-72 -70 -150 -94q-81 -25 -187 -25q-160 0 -231 59q-81 67 -81 178q0 25 8 73z" />
    <glyph glyph-name="dotaccent" unicode="&#x2d9;" horiz-adv-x="1024" vert-adv-y="2457" 
d="M458 1229l58 273h357l-58 -273h-357z" />
    <glyph glyph-name="ring" unicode="&#x2da;" horiz-adv-x="1024" vert-adv-y="2457" 
d="M696 1502q339 0 339 -176q0 -114 -91 -180q-97 -70 -342 -70q-338 0 -338 176q0 114 91 180q97 70 341 70zM671 1367q-113 0 -113 -117q0 -47 74 -47q113 0 113 117q0 47 -74 47z" />
    <glyph glyph-name="cedilla" unicode="&#xb8;" horiz-adv-x="1024" vert-adv-y="2457" 
d="M618 -82l-355 -484h-346l264 484h437z" />
    <glyph glyph-name="hungarumlaut" unicode="&#x2dd;" horiz-adv-x="1024" vert-adv-y="2457" 
d="M603 1229h-430l260 273h430zM1103 1229h-430l259 273h430z" />
    <glyph glyph-name="ogonek" unicode="&#x2db;" horiz-adv-x="1024" vert-adv-y="2457" 
d="M810 0q-136 -15 -136 -131q0 -56 94 -66l-34 -162q-132 4 -202 53q-89 61 -89 171q0 159 152 242q91 49 250 56z" />
    <glyph glyph-name="caron" unicode="&#x2c7;" horiz-adv-x="1024" vert-adv-y="2457" 
d="M663 1350l112 152h369l-227 -273h-560l-111 273h369z" />
    <glyph glyph-name="uni00A0" unicode="&#xa0;" vert-adv-y="2457" 
 />
    <glyph glyph-name="currency" unicode="&#xa4;" horiz-adv-x="1372" vert-adv-y="2457" 
d="M-117 219l268 220q-16 63 -16 132q0 198 134 381l-179 226l277 228l183 -232q133 58 260 58q133 0 238 -56l277 227l178 -226l-268 -221q26 -77 26 -149q0 -191 -124 -367l173 -219l-273 -228l-172 218q-145 -71 -302 -71q-65 0 -122 16q-47 14 -115 54l-265 -216z
M738 857q-84 0 -156 -80q-51 -56 -51 -124q0 -50 24 -80q36 -46 107 -46q83 0 156 82q50 56 50 124q0 50 -24 79q-37 45 -106 45z" />
    <glyph glyph-name="uni00AD" unicode="&#xad;" horiz-adv-x="750" vert-adv-y="2457" 
d="M671 394h-696l81 382h696z" />
    <glyph glyph-name="Eth" unicode="&#xd0;" horiz-adv-x="1989" vert-adv-y="2457" 
d="M913 606h-932l33 153h931zM62 552h702l-30 -143h106q112 0 177 26q124 51 184 170q33 68 33 139q0 87 -57 120q-51 30 -140 30h-200l-17 -81h-702l117 552h1191q209 0 324 -73q95 -60 157 -158q73 -115 73 -256q0 -167 -70 -343q-120 -302 -455 -442q-221 -93 -488 -93
h-1022z" />
    <glyph glyph-name="multiply" unicode="&#xd7;" horiz-adv-x="1092" vert-adv-y="2457" 
d="M504 460l-339 -280l-173 219l339 280l-227 288l273 225l227 -288l342 282l173 -219l-342 -282l227 -289l-273 -225z" />
    <glyph glyph-name="Yacute" unicode="&#xdd;" horiz-adv-x="1808" vert-adv-y="2457" 
d="M1300 1260h-479l215 243h479zM852 1365l-156 -164h239l56 -249l152 249h167l156 164h537l-797 -971l-84 -394h-702l83 394l-390 971h739z" />
    <glyph glyph-name="Thorn" unicode="&#xde;" horiz-adv-x="1929" vert-adv-y="2457" 
d="M647 0h-702l290 1365h702l-29 -136h582q255 0 373 -153q66 -86 66 -212q0 -109 -42 -224q-109 -299 -397 -402q-178 -64 -469 -64h-337zM764 549h228q118 0 179 64q53 56 53 127q0 95 -121 95h-278z" />
    <glyph glyph-name="eth" unicode="&#xf0;" horiz-adv-x="1706" vert-adv-y="2457" 
d="M1596 1483l132 -251l-441 -258l-132 251zM1377 1399l-279 -163l167 -317l268 156q14 -37 40 -96q89 -213 89 -322q0 -112 -46 -243q-99 -287 -373 -383q-199 -70 -536 -70q-466 0 -623 177q-88 98 -88 252q0 132 46 257q92 248 365 340q193 66 545 66q60 0 116 -2
q-61 131 -137 254l383 197q37 -58 63 -103zM869 663q-255 0 -255 -213q0 -67 46 -96q44 -27 130 -27q92 0 148 36q111 71 111 197q0 103 -180 103z" />
    <glyph glyph-name="yacute" unicode="&#xfd;" horiz-adv-x="1707" vert-adv-y="2457" 
d="M1249 1270h-495l220 232h496zM1166 1151h691l-622 -913q-170 -259 -206 -304q-83 -103 -162 -145q-114 -62 -360 -62h-612l77 362h423l-327 1062h689l101 -571z" />
    <glyph glyph-name="thorn" unicode="&#xfe;" horiz-adv-x="1789" vert-adv-y="2457" 
d="M-126 -273l361 1697h663l-92 -434q94 94 182 133q128 57 306 57q210 0 326 -84q144 -106 144 -321q0 -141 -53 -319q-80 -270 -228 -378q-149 -108 -406 -108q-190 0 -305 60q-59 30 -146 116l-89 -419h-663zM942 777q-110 0 -190 -104q-62 -79 -62 -204q0 -75 37 -108
q44 -39 113 -39q124 0 201 125q52 84 52 189q0 141 -151 141z" />
    <glyph glyph-name="Amacron" unicode="&#x100;" horiz-adv-x="1897" vert-adv-y="2457" 
d="M1498 1338h-809l36 171h809zM640 1365l-21 -98h918l21 98h104l140 -1365h-708l-11 176h-457l-86 -176h-717l727 1365h90zM1080 548l-48 432l-240 -432h288z" />
    <glyph glyph-name="amacron" unicode="&#x101;" horiz-adv-x="1789" vert-adv-y="2457" 
d="M1425 1280h-823l36 167h822zM1584 0h-663l31 146q-131 -109 -213 -139q-97 -36 -268 -36q-217 0 -308 55q-74 45 -117 126q-51 97 -51 212q0 167 67 370q95 287 282 371q166 75 362 75q177 0 294 -66q56 -32 132 -124l34 161h663zM911 777q-110 0 -190 -103
q-62 -80 -62 -204q0 -76 37 -108q44 -39 112 -39q126 0 202 125q52 84 52 187q0 142 -151 142z" />
    <glyph glyph-name="Abreve" unicode="&#x102;" horiz-adv-x="1897" vert-adv-y="2457" 
d="M727 1365q17 -68 57 -112q34 -38 77 -57q73 -31 202 -31q159 0 258 58q88 50 151 142h190l140 -1365h-708l-11 176h-457l-86 -176h-717l727 1365h177zM1080 548l-48 432l-240 -432h288zM787 1512h132q12 -122 183 -122q120 0 185 51q31 25 55 71h132q-28 -97 -91 -163
q-66 -70 -137 -95q-73 -25 -168 -25q-160 0 -225 60q-70 65 -70 172q0 17 4 51z" />
    <glyph glyph-name="abreve" unicode="&#x103;" horiz-adv-x="1789" vert-adv-y="2457" 
d="M751 1502h144q5 -112 177 -112q126 0 189 54q25 22 47 58h144q-29 -105 -85 -164q-100 -105 -324 -105q-103 0 -162 25q-54 23 -98 93q-35 55 -35 114q0 12 3 37zM1584 0h-663l31 146q-131 -109 -213 -139q-97 -36 -268 -36q-217 0 -308 55q-74 45 -117 126
q-51 97 -51 212q0 167 67 370q95 287 282 371q166 75 362 75q177 0 294 -66q56 -32 132 -124l34 161h663zM911 777q-110 0 -190 -103q-62 -80 -62 -204q0 -76 37 -108q44 -39 112 -39q126 0 202 125q52 84 52 187q0 142 -151 142z" />
    <glyph glyph-name="Aogonek" unicode="&#x104;" horiz-adv-x="1901" vert-adv-y="2457" 
d="M1453 0h-355l-11 176h-457l-86 -176h-717l727 1365h1112l121 -1180q-154 -20 -240 -83q-58 -43 -94 -102zM1084 548l-48 432l-240 -432h288zM1781 10q-143 -32 -143 -172q0 -73 86 -94l-26 -124q-240 19 -240 199q0 70 33 135q82 160 316 179z" />
    <glyph glyph-name="aogonek" unicode="&#x105;" horiz-adv-x="1789" vert-adv-y="2457" 
d="M1625 190q-285 -13 -394 -190h-310l31 146q-103 -88 -189 -123q-130 -52 -321 -52q-243 0 -346 97t-103 282q0 179 70 381q93 266 290 368q156 81 363 81t327 -86q50 -36 89 -104l34 161h663zM908 777q-120 0 -189 -100q-58 -84 -58 -199q0 -77 41 -116q42 -39 110 -39
q72 0 134 44q61 45 95 144q20 59 20 113q0 153 -153 153zM1572 6q-137 -21 -137 -139q0 -67 90 -82l-29 -136q-269 17 -269 197q0 154 150 240q82 47 224 56z" />
    <glyph glyph-name="Cacute" unicode="&#x106;" horiz-adv-x="1710" vert-adv-y="2457" 
d="M1308 1260h-479l214 243h480zM869 1381l-172 -180h614l165 173q165 -17 339 -45l-115 -533q-291 52 -515 52q-247 0 -341 -89q-77 -73 -77 -184q0 -57 50 -93q65 -47 297 -47q244 0 498 55l-101 -471q-303 -48 -618 -48q-357 0 -516 63q-239 96 -313 327q-27 85 -27 186
q0 214 110 414q142 257 390 349q133 48 332 71z" />
    <glyph glyph-name="cacute" unicode="&#x107;" horiz-adv-x="1478" vert-adv-y="2457" 
d="M1270 1270h-496l221 232h495zM1403 438l-91 -384q-290 -85 -568 -85q-220 0 -386 38q-222 51 -304 221q-45 93 -45 216q0 156 61 306q72 176 193 268q151 115 463 150q128 14 254 14q250 0 559 -59l-87 -451q-254 40 -431 40q-180 0 -249 -46q-102 -68 -102 -167
q0 -126 208 -126q188 0 525 65z" />
    <glyph glyph-name="cdotaccent" unicode="&#x10b;" horiz-adv-x="1478" vert-adv-y="2457" 
d="M849 1270l49 232h316l-49 -232h-316zM1403 438l-91 -384q-290 -85 -568 -85q-220 0 -386 38q-222 51 -304 221q-45 93 -45 216q0 156 61 306q72 176 193 268q151 115 463 150q128 14 254 14q250 0 559 -59l-87 -451q-254 40 -431 40q-180 0 -249 -46q-102 -68 -102 -167
q0 -126 208 -126q188 0 525 65z" />
    <glyph glyph-name="Ccaron" unicode="&#x10c;" horiz-adv-x="1710" vert-adv-y="2457" 
d="M1114 1301l140 202h304l-189 -243h-528l-85 243h304zM733 1360l65 -159h590l139 167q113 -11 288 -39l-115 -533q-291 52 -515 52q-247 0 -341 -89q-77 -73 -77 -184q0 -57 50 -93q65 -47 297 -47q244 0 498 55l-101 -471q-303 -48 -618 -48q-357 0 -515 63
q-239 96 -314 327q-27 85 -27 186q0 154 61 308q84 215 245 344q140 113 390 161z" />
    <glyph glyph-name="ccaron" unicode="&#x10d;" horiz-adv-x="1478" vert-adv-y="2457" 
d="M1019 1327l130 175h319l-193 -232h-536l-95 232h320zM1403 438l-91 -384q-290 -85 -568 -85q-220 0 -386 38q-222 51 -304 221q-45 93 -45 216q0 156 61 306q72 176 193 268q151 115 463 150q128 14 254 14q250 0 559 -59l-87 -451q-254 40 -431 40q-180 0 -249 -46
q-102 -68 -102 -167q0 -126 208 -126q188 0 525 65z" />
    <glyph glyph-name="Dcaron" unicode="&#x10e;" horiz-adv-x="1989" vert-adv-y="2457" 
d="M1059 1301l140 202h304l-189 -243h-528l-85 243h304zM676 1365l67 -164h589l136 163q115 -4 188 -27.5t140 -78.5q184 -149 184 -379q0 -168 -69 -343q-120 -302 -455 -443q-221 -93 -489 -93h-1022l290 1365h441zM734 409h106q112 0 177 26q126 51 184 170q33 67 33 139
q0 88 -57 120q-51 30 -140 30h-200z" />
    <glyph glyph-name="dcaron" unicode="&#x10f;" horiz-adv-x="1930" vert-adv-y="2457" 
d="M2131 1413l-335 -457h-319l250 457h404zM1685 1424l-280 -511h373l-194 -913h-663l31 146q-102 -102 -192 -134q-113 -41 -303 -41q-203 0 -294 56q-74 44 -117 125q-51 96 -51 212q0 167 67 370q95 287 282 371q167 75 362 75t318 -80q52 -34 108 -110l92 434h461z
M911 777q-110 0 -190 -103q-62 -80 -62 -204q0 -76 37 -108q44 -39 112 -39q126 0 202 125q52 84 52 187q0 142 -151 142z" />
    <glyph glyph-name="Dcroat" unicode="&#x110;" horiz-adv-x="1989" vert-adv-y="2457" 
d="M913 606h-932l33 153h931zM62 552h702l-30 -143h106q112 0 177 26q124 51 184 170q33 68 33 139q0 87 -57 120q-51 30 -140 30h-200l-17 -81h-702l117 552h1191q209 0 324 -73q95 -60 157 -158q73 -115 73 -256q0 -167 -70 -343q-120 -302 -455 -442q-221 -93 -488 -93
h-1022z" />
    <glyph glyph-name="dcroat" unicode="&#x111;" horiz-adv-x="1789" vert-adv-y="2457" 
d="M1868 1103h-738l38 180h738zM1147 1062h663l-226 -1062h-663l31 146q-58 -60 -98 -88t-93 -47q-116 -40 -306 -40q-201 0 -292 56q-74 44 -117 125q-51 96 -51 212q0 167 67 370q95 286 282 371q164 75 366 75q186 0 301 -75q51 -34 121 -115zM911 776q-110 0 -190 -103
q-62 -80 -62 -203q0 -76 37 -108q44 -39 112 -39q126 0 202 125q52 84 52 186q0 142 -151 142zM1203 1324l21 100h663l-21 -100h-663z" />
    <glyph glyph-name="Emacron" unicode="&#x112;" horiz-adv-x="1716" vert-adv-y="2457" 
d="M1417 1338h-809l36 171h809zM559 1365l-21 -98h918l21 98h324l-93 -438h-864l-27 -126h864l-69 -327h-864l-25 -116h864l-76 -358h-1566l290 1365h324z" />
    <glyph glyph-name="emacron" unicode="&#x113;" horiz-adv-x="1680" vert-adv-y="2457" 
d="M1387 1280h-822l35 167h822zM1588 386l-206 -317q-170 -37 -275 -56q-238 -42 -452 -42q-353 0 -522 145q-128 110 -128 317q0 141 50 279q109 296 399 399q194 69 521 69q266 0 399 -52q270 -106 270 -414q0 -103 -43 -265h-907q-8 -37 -8 -56q0 -37 16 -54
q45 -46 206 -46q151 0 430 44q130 20 250 49zM1128 713q8 40 8 62q0 49 -30 84q-37 45 -128 45q-189 0 -258 -191h408z" />
    <glyph glyph-name="Ebreve" unicode="&#x114;" horiz-adv-x="1716" vert-adv-y="2457" 
d="M646 1365q17 -68 57 -112q34 -38 77 -57q73 -31 202 -31q159 0 258 58q88 50 151 142h410l-93 -439h-864l-27 -125h864l-69 -327h-864l-25 -116h864l-76 -358h-1566l290 1365h411zM705 1509h132q12 -122 184 -122q119 0 183 51q32 25 56 71h132q-28 -97 -91 -163
q-65 -70 -137 -95q-73 -25 -168 -25q-160 0 -225 60q-70 65 -70 173q0 15 4 50z" />
    <glyph glyph-name="ebreve" unicode="&#x115;" horiz-adv-x="1680" vert-adv-y="2457" 
d="M664 1502h158q1 -45 23 -68q41 -43 149 -43q122 0 183 52q25 20 47 59h157q-31 -112 -90 -174q-102 -108 -331 -108q-104 0 -163 25q-56 23 -101 95q-36 56 -36 118q0 13 4 44zM1588 386l-206 -317q-170 -37 -275 -56q-238 -42 -452 -42q-353 0 -522 145
q-128 110 -128 317q0 141 50 279q109 296 399 399q194 69 521 69q266 0 399 -52q270 -106 270 -414q0 -103 -43 -265h-907q-8 -37 -8 -56q0 -37 16 -54q45 -46 206 -46q151 0 430 44q130 20 250 49zM1128 713q8 40 8 62q0 49 -30 84q-37 45 -128 45q-189 0 -258 -191h408z
" />
    <glyph glyph-name="Edotaccent" unicode="&#x116;" horiz-adv-x="1716" vert-adv-y="2457" 
d="M844 1260l52 243h303l-52 -243h-303zM812 1365l-35 -164h412l35 164h577l-93 -439h-864l-27 -125h864l-69 -327h-864l-25 -116h864l-76 -358h-1566l290 1365h577z" />
    <glyph glyph-name="edotaccent" unicode="&#x117;" horiz-adv-x="1680" vert-adv-y="2457" 
d="M815 1270l50 232h316l-49 -232h-317zM1588 386l-206 -317q-170 -37 -275 -56q-238 -42 -452 -42q-353 0 -522 145q-128 110 -128 317q0 141 50 279q109 296 399 399q194 69 521 69q266 0 399 -52q270 -106 270 -414q0 -103 -43 -265h-907q-8 -37 -8 -56q0 -37 16 -54
q45 -46 206 -46q151 0 430 44q130 20 250 49zM1128 713q8 40 8 62q0 49 -30 84q-37 45 -128 45q-189 0 -258 -191h408z" />
    <glyph glyph-name="Eogonek" unicode="&#x118;" horiz-adv-x="1716" vert-adv-y="2457" 
d="M1551 190q-284 -13 -393 -190h-1213l290 1365h1566l-93 -439h-864l-27 -125h864l-69 -327h-864l-25 -116h864zM1486 13q-142 -32 -142 -171q0 -74 86 -95l-26 -124q-240 19 -240 199q0 71 33 135q82 160 316 179z" />
    <glyph glyph-name="eogonek" unicode="&#x119;" horiz-adv-x="1680" vert-adv-y="2457" 
d="M1392 5q-53 -9 -87 -36q-52 -41 -52 -112q0 -59 92 -73l-29 -137q-121 9 -181 51q-86 60 -86 159q0 60 36 119q90 150 336 165zM1461 191q-145 -6 -234 -43q-73 -30 -120 -75q-23 -22 -56 -69q-205 -33 -400 -33q-350 0 -519 145q-128 111 -128 317q0 141 51 279
q109 297 399 399q194 69 520 69q267 0 400 -52q270 -106 270 -414q0 -103 -43 -265h-908q-8 -36 -8 -56q0 -37 16 -54q45 -46 206 -46q152 0 430 44q131 20 251 49zM1128 713q8 40 8 62q0 49 -30 84q-37 45 -128 45q-189 0 -258 -191h408z" />
    <glyph glyph-name="Ecaron" unicode="&#x11a;" horiz-adv-x="1716" vert-adv-y="2457" 
d="M1004 1301l140 202h305l-189 -243h-528l-86 243h305zM622 1365l67 -164h589l137 164h386l-93 -439h-864l-27 -125h864l-69 -327h-864l-25 -116h864l-76 -358h-1566l290 1365h387z" />
    <glyph glyph-name="ecaron" unicode="&#x11b;" horiz-adv-x="1680" vert-adv-y="2457" 
d="M985 1327l130 175h320l-193 -232h-537l-94 232h319zM1588 386l-206 -317q-170 -37 -275 -56q-238 -42 -452 -42q-353 0 -522 145q-128 110 -128 317q0 141 50 279q109 296 399 399q194 69 521 69q266 0 399 -52q270 -106 270 -414q0 -103 -43 -265h-907q-8 -37 -8 -56
q0 -37 16 -54q45 -46 206 -46q151 0 430 44q130 20 250 49zM1128 713q8 40 8 62q0 49 -30 84q-37 45 -128 45q-189 0 -258 -191h408z" />
    <glyph glyph-name="Gbreve" unicode="&#x11e;" horiz-adv-x="1783" vert-adv-y="2457" 
d="M755 1362q19 -66 57 -109q33 -38 77 -57q73 -31 203 -31q158 0 257 58q94 55 156 150q176 -19 358 -64l-101 -472q-281 57 -553 57q-298 0 -415 -125q-94 -100 -94 -228q0 -86 48 -140q65 -72 210 -72q27 0 83 4l76 356h635l-131 -617q-173 -39 -289 -59
q-240 -42 -472 -42q-316 0 -513 77q-152 60 -227 153q-91 114 -91 291q0 179 66 350q78 202 257 342q169 131 403 178zM816 1518h132q11 -122 184 -122q119 0 183 51q31 25 56 71h132q-28 -97 -91 -163q-66 -70 -137 -95q-73 -25 -168 -25q-160 0 -225 60q-70 65 -70 173
q0 16 4 50z" />
    <glyph glyph-name="gbreve" unicode="&#x11f;" horiz-adv-x="1802" vert-adv-y="2457" 
d="M738 1502h144q5 -112 177 -112q126 0 189 54q25 21 47 58h145q-30 -105 -86 -164q-99 -105 -324 -105q-103 0 -162 25q-54 23 -98 93q-35 55 -35 113q0 13 3 38zM1841 1151l-199 -935q-38 -183 -118 -279q-72 -87 -173 -132q-226 -100 -793 -100q-281 0 -597 28l30 314
q237 -58 510 -58q181 0 275 25q128 34 172 104q16 25 26 73q-89 -46 -163 -67q-128 -38 -310 -38q-218 0 -328 67q-88 53 -128 153q-31 77 -31 166q0 157 69 330q98 246 276 320q141 58 373 58q179 0 297 -58q65 -32 120 -107l29 136h663zM915 855q-110 0 -190 -103
q-62 -80 -62 -204q0 -76 37 -108q44 -39 113 -39q125 0 201 125q52 84 52 186q0 143 -151 143z" />
    <glyph glyph-name="Gcommaaccent" unicode="&#x122;" horiz-adv-x="1783" vert-adv-y="2457" 
d="M1074 100l-326 -474h-292l245 474h373zM1047 -23l127 173h-502l-88 -161q-129 18 -231 61q-320 137 -320 465q0 168 59 331q121 330 448 459q226 89 589 89q385 0 733 -85l-100 -472q-285 57 -553 57q-174 0 -277 -41q-137 -55 -199 -176q-36 -72 -36 -148
q0 -200 258 -200q27 0 86 4l76 356h635l-131 -617q-333 -76 -574 -95z" />
    <glyph glyph-name="gcommaaccent" unicode="&#x123;" horiz-adv-x="1802" vert-adv-y="2457" 
d="M742 1045l336 457h318l-249 -457h-405zM801 1179l-138 -188h502l87 160h589l-199 -935q-38 -183 -118 -279q-72 -87 -173 -131q-226 -101 -793 -101q-281 0 -597 28l30 314q237 -58 510 -58q181 0 275 25q128 34 172 104q16 25 26 73q-89 -46 -163 -67q-128 -38 -310 -38
q-217 0 -327 67q-89 53 -129 153q-31 77 -31 166q0 158 68 330q99 246 277 320q140 58 370 58q39 0 72 -1zM916 855q-138 0 -211 -132q-42 -77 -42 -175q0 -76 37 -108q44 -39 113 -39q125 0 201 125q52 84 52 187q0 142 -150 142z" />
    <glyph glyph-name="Imacron" unicode="&#x12a;" horiz-adv-x="866" vert-adv-y="2457" 
d="M987 1344h-809l37 171h808zM215 1267h703l-270 -1267h-702z" />
    <glyph glyph-name="imacron" unicode="&#x12b;" horiz-adv-x="800" vert-adv-y="2457" 
d="M947 1280h-822l35 167h822zM595 0h-663l245 1151h663z" />
    <glyph glyph-name="Iogonek" unicode="&#x12e;" horiz-adv-x="866" vert-adv-y="2457" 
d="M688 190q-285 -13 -394 -190h-349l290 1365h702zM623 13q-143 -32 -143 -171q0 -74 86 -95l-26 -124q-110 9 -167 51q-73 54 -73 148q0 70 33 135q82 160 316 179z" />
    <glyph glyph-name="iogonek" unicode="&#x12f;" horiz-adv-x="800" vert-adv-y="2457" 
d="M893 1401l-27 -126q-9 -41 -28 -50q-18 -8 -66 -8h-478q-45 0 -60 9q-12 7 -12 25q0 12 2 24l27 126q8 37 24 47q17 11 70 11h479q44 0 60 -9q12 -7 12 -24q0 -10 -3 -25zM181 1171q122 -20 322 -20q211 0 341 20l-208 -981q-285 -13 -394 -190h-310zM582 3
q-136 -21 -136 -139q0 -67 89 -82l-29 -136q-268 17 -268 197q0 154 150 240q82 47 223 56z" />
    <glyph glyph-name="Idotaccent" unicode="&#x130;" horiz-adv-x="866" vert-adv-y="2457" 
d="M413 1260l51 243h303l-52 -243h-302zM381 1365l-35 -164h412l34 164h145l-290 -1365h-702l290 1365h146z" />
    <glyph glyph-name="Kcommaaccent" unicode="&#x136;" horiz-adv-x="1911" vert-adv-y="2457" 
d="M1031 97l-326 -474h-292l246 474h372zM1021 0l111 150h-232l-160 287l-61 -287h-49l-82 -150h-603l290 1365h702l-111 -527l447 527h832l-724 -701l396 -664h-756z" />
    <glyph glyph-name="kcommaaccent" unicode="&#x137;" horiz-adv-x="1708" vert-adv-y="2457" 
d="M959 104l-335 -457h-319l250 457h404zM927 0l110 150h-258l-101 237l-51 -237h-92l-82 -150h-521l303 1424h663l-159 -746l349 473h769l-559 -585l233 -566h-604z" />
    <glyph glyph-name="Lacute" unicode="&#x139;" horiz-adv-x="1395" vert-adv-y="2457" 
d="M906 1260h-480l215 243h479zM457 1365l-156 -164h602l-153 -718h597l-102 -483h-1300l290 1365h222z" />
    <glyph glyph-name="lacute" unicode="&#x13a;" horiz-adv-x="800" vert-adv-y="2457" 
d="M845 1245h-512l234 246h512zM448 1424l-212 -223h614l-255 -1201h-663l303 1424h213z" />
    <glyph glyph-name="Lcommaaccent" unicode="&#x13b;" horiz-adv-x="1395" vert-adv-y="2457" 
d="M787 94l-327 -474h-291l245 474h373zM777 0l111 150h-502l-82 -150h-359l290 1365h702l-187 -883h597l-102 -482h-468z" />
    <glyph glyph-name="lcommaaccent" unicode="&#x13c;" horiz-adv-x="800" vert-adv-y="2457" 
d="M523 104l-335 -457h-319l249 457h405zM490 0l111 150h-502l-82 -150h-85l303 1424h663l-303 -1424h-105z" />
    <glyph glyph-name="Lcaron" unicode="&#x13d;" horiz-adv-x="1395" vert-adv-y="2457" 
d="M1469 1380l-326 -475h-292l245 475h373zM879 1090l-129 -236h79l-79 -371h597l-102 -483h-1300l290 1365h702z" />
    <glyph glyph-name="lcaron" unicode="&#x13e;" horiz-adv-x="929" vert-adv-y="2457" 
d="M1136 1419l-336 -457h-318l249 457h405zM685 1424l-280 -511h384l-194 -913h-663l303 1424h450z" />
    <glyph glyph-name="Lslash" unicode="&#x141;" horiz-adv-x="1395" vert-adv-y="2457" 
d="M1103 1114l-52 -244l-1141 -643l52 244zM-9 215l798 450l-39 -182h598l-103 -483h-1300zM868 1039l-797 -450l164 776h703z" />
    <glyph glyph-name="lslash" unicode="&#x142;" horiz-adv-x="800" vert-adv-y="2457" 
d="M-13 604l921 520l-58 -276l-922 -521zM2 326l753 425l-159 -751h-664zM835 1126l-754 -426l154 724h663z" />
    <glyph glyph-name="Nacute" unicode="&#x143;" horiz-adv-x="1921" vert-adv-y="2457" 
d="M1359 1260h-479l215 243h479zM908 1365l-156 -164h264l192 -407l86 407h72l156 164h471l-291 -1365h-617l-347 611l-130 -611h-663l290 1365h673z" />
    <glyph glyph-name="nacute" unicode="&#x144;" horiz-adv-x="1788" vert-adv-y="2457" 
d="M1295 1270h-495l221 232h495zM1593 0h-663l119 563q9 41 9 64q0 50 -45 76q-32 18 -89 18q-92 0 -141 -39q-51 -40 -71 -134l-117 -548h-663l245 1151h663l-37 -174q106 110 219 153q132 50 321 50q418 0 418 -316q0 -72 -16 -148z" />
    <glyph glyph-name="Ncommaaccent" unicode="&#x145;" horiz-adv-x="1921" vert-adv-y="2457" 
d="M1060 97l-326 -474h-291l245 474h372zM1070 27l91 123h-161l-262 461l-110 -518l-51 -93h-632l290 1365h704l269 -571l121 571h664l-291 -1365h-617z" />
    <glyph glyph-name="ncommaaccent" unicode="&#x146;" horiz-adv-x="1788" vert-adv-y="2457" 
d="M1022 104l-336 -457h-318l249 457h405zM989 0l110 150h-138l88 412q9 42 9 65q0 50 -45 76q-32 18 -89 18q-92 0 -141 -39q-51 -40 -71 -134l-85 -398h-29l-82 -150h-584l245 1151h663l-37 -174q106 110 219 153q132 50 321 50q418 0 418 -317q0 -71 -16 -148l-152 -715
h-604z" />
    <glyph glyph-name="Ncaron" unicode="&#x147;" horiz-adv-x="1921" vert-adv-y="2457" 
d="M1100 1301l140 202h304l-188 -243h-528l-86 243h304zM718 1365l66 -164h232l192 -407l86 407h80l136 164h483l-291 -1365h-617l-347 611l-130 -611h-663l290 1365h483z" />
    <glyph glyph-name="ncaron" unicode="&#x148;" horiz-adv-x="1788" vert-adv-y="2457" 
d="M1044 1327l130 175h320l-193 -232h-537l-94 232h319zM1593 0h-663l119 563q9 41 9 64q0 50 -45 76q-32 18 -89 18q-92 0 -141 -39q-51 -40 -71 -134l-117 -548h-663l245 1151h663l-37 -174q106 110 219 153q132 50 321 50q418 0 418 -316q0 -72 -16 -148z" />
    <glyph glyph-name="Omacron" unicode="&#x14c;" horiz-adv-x="1968" vert-adv-y="2457" 
d="M1535 1332h-809l37 171h809zM675 1347l-17 -80h918l17 80q361 -128 361 -488q0 -172 -67 -351q-83 -220 -230 -340q-253 -207 -822 -207q-331 0 -526 96q-189 92 -248 259q-28 80 -28 190q0 184 68 360q121 316 410 429q70 28 164 52zM1054 941q-123 0 -205 -82
q-69 -69 -94 -194q-14 -71 -14 -128q0 -96 42 -136q47 -46 136 -46q162 0 252 166q28 52 47 125q20 78 20 135q0 160 -184 160z" />
    <glyph glyph-name="omacron" unicode="&#x14d;" horiz-adv-x="1706" vert-adv-y="2457" 
d="M1400 1280h-822l35 167h823zM1003 1190q273 0 402 -55q193 -82 252 -260q20 -61 20 -135q0 -129 -48 -272q-111 -326 -381 -429q-204 -78 -539 -78q-304 0 -464 79q-238 118 -238 384q0 156 54 308q65 181 189 283q154 125 397 154q173 21 356 21zM900 800
q-102 0 -162 -47q-114 -89 -114 -276q0 -150 165 -150q94 0 155 50q69 58 99 149q26 79 26 142q0 132 -169 132z" />
    <glyph glyph-name="Ohungarumlaut" unicode="&#x150;" horiz-adv-x="1968" vert-adv-y="2457" 
d="M1098 1260h-364l215 243h363zM1555 1260h-363l214 243h364zM1561 1201l111 116q281 -144 281 -459q0 -172 -67 -350q-83 -220 -230 -340q-252 -207 -822 -207q-331 0 -526 96q-189 92 -248 259q-28 80 -28 190q0 184 68 361q126 327 445 443q97 36 220 59l-159 -168h955z
M1053 941q-123 0 -205 -82q-68 -68 -93 -194q-15 -73 -15 -128q0 -95 42 -136q48 -46 136 -46q162 0 252 166q28 53 47 125q20 77 20 135q0 160 -184 160z" />
    <glyph glyph-name="ohungarumlaut" unicode="&#x151;" horiz-adv-x="1706" vert-adv-y="2457" 
d="M949 1270h-379l221 232h379zM1427 1270h-379l221 232h379zM1003 1190q273 0 402 -55q193 -82 252 -260q20 -61 20 -135q0 -129 -48 -272q-111 -326 -381 -429q-204 -78 -539 -78q-304 0 -464 79q-238 118 -238 384q0 156 54 308q65 181 189 283q154 125 397 154
q173 21 356 21zM900 800q-102 0 -162 -47q-114 -89 -114 -276q0 -150 165 -150q94 0 155 50q69 58 99 149q26 79 26 142q0 132 -169 132z" />
    <glyph glyph-name="Racute" unicode="&#x154;" horiz-adv-x="1922" vert-adv-y="2457" 
d="M1295 1260h-479l214 243h480zM843 1365l-156 -164h614l156 164h94q153 0 230 -35q117 -51 164 -168q23 -58 23 -123q0 -76 -30 -154q-75 -189 -267 -269q-82 -35 -223 -49l351 -567h-817l-243 431l-92 -431h-702l290 1365h608zM800 719h214q71 0 110.5 13.5t72.5 50.5
q52 56 52 133q0 36 -20 57q-27 28 -113 28h-256z" />
    <glyph glyph-name="racute" unicode="&#x155;" horiz-adv-x="1221" vert-adv-y="2457" 
d="M997 1270h-495l221 232h495zM595 0h-663l245 1151h618l-62 -293q47 110 85 164q67 94 149 128q73 31 212 31q60 0 141 -10l-136 -641h-42l-93 1q-183 0 -285 -65q-62 -40 -87 -104q-10 -26 -21 -74z" />
    <glyph glyph-name="Rcommaaccent" unicode="&#x156;" horiz-adv-x="1922" vert-adv-y="2457" 
d="M1064 97l-326 -474h-292l245 474h373zM1054 0l111 150h-268l-158 281l-60 -281h-16l-82 -150h-636l290 1365h1316q153 0 230 -35q117 -51 164 -168q23 -58 23 -123q0 -76 -30 -154q-75 -188 -267 -269q-83 -35 -223 -49l351 -567h-745zM800 719h214q71 0 110.5 13.5
t72.5 50.5q52 56 52 133q0 36 -20 57q-27 28 -113 28h-256z" />
    <glyph glyph-name="rcommaaccent" unicode="&#x157;" horiz-adv-x="1221" vert-adv-y="2457" 
d="M683 104l-335 -457h-319l250 457h404zM177 0h-245l245 1151h618l-62 -293q47 110 85 164q67 94 149 128q73 31 212 31q60 0 141 -10l-136 -641q-32 0 -135 1q-180 2 -285 -65q-62 -40 -87 -104q-10 -26 -21 -74l-29 -138h-368z" />
    <glyph glyph-name="Rcaron" unicode="&#x158;" horiz-adv-x="1922" vert-adv-y="2457" 
d="M1063 1301l140 202h304l-189 -243h-528l-85 243h304zM681 1365l66 -164h590l136 164h78q153 0 230 -35q117 -51 164 -168q23 -58 23 -123q0 -76 -30 -154q-75 -189 -267 -269q-82 -35 -223 -49l351 -567h-817l-243 431l-92 -431h-702l290 1365h446zM800 719h214
q71 0 110.5 13.5t72.5 50.5q52 56 52 133q0 36 -20 57q-27 28 -113 28h-256z" />
    <glyph glyph-name="rcaron" unicode="&#x159;" horiz-adv-x="1221" vert-adv-y="2457" 
d="M747 1327l129 175h320l-193 -232h-536l-95 232h320zM595 0h-663l245 1151h618l-62 -293q47 110 85 164q67 94 149 128q73 31 212 31q60 0 141 -10l-136 -641h-42l-93 1q-183 0 -285 -65q-62 -40 -87 -104q-10 -26 -21 -74z" />
    <glyph glyph-name="Sacute" unicode="&#x15a;" horiz-adv-x="1692" vert-adv-y="2457" 
d="M1248 1260h-479l214 243h480zM815 1385l-175 -184h614l165 174q159 -15 326 -49l-85 -400q-101 16 -232 27q-228 19 -308 19h-155q-86 0 -118 -27q-26 -21 -26 -47q0 -43 65 -43l245 -2q286 -2 387 -84q104 -84 104 -240q0 -79 -32 -159q-96 -240 -373 -338
q-174 -61 -518 -61q-296 0 -538 34q-86 12 -213 35l79 374q410 -66 737 -66q80 0 109 38q13 17 13 35t-14 28q-14 9 -75 9h-115q-104 0 -250 17q-147 17 -230 77q-120 87 -120 242q0 148 75 282q82 147 220 212q156 73 438 97z" />
    <glyph glyph-name="sacute" unicode="&#x15b;" horiz-adv-x="1495" vert-adv-y="2457" 
d="M1144 1270h-496l221 232h495zM1515 1152l-77 -363q-224 26 -479 26q-192 0 -226 -16q-30 -15 -30 -41q0 -28 57 -28l118 2q26 0 273 -4q266 -5 266 -242q0 -106 -44 -206q-92 -211 -339 -269q-169 -40 -442 -40q-255 0 -615 42l45 338q316 -39 505 -39q177 0 219 5
q46 5 46 48q0 26 -39 26q-23 0 -62 -1q-44 -1 -65 -1q-344 0 -449 66q-120 77 -120 245q0 99 40 190q66 152 211 219q151 71 593 71q357 0 614 -28z" />
    <glyph glyph-name="scircumflex" unicode="&#x15d;" horiz-adv-x="1495" vert-adv-y="2457" 
d="M918 1445l-129 -175h-320l193 232h537l94 -232h-320zM1515 1152l-77 -363q-224 26 -479 26q-192 0 -226 -16q-30 -15 -30 -41q0 -28 57 -28l118 2q26 0 273 -4q266 -5 266 -242q0 -106 -44 -206q-92 -211 -339 -269q-169 -40 -442 -40q-255 0 -615 42l45 338
q316 -39 505 -39q177 0 219 5q46 5 46 48q0 26 -39 26q-23 0 -62 -1q-44 -1 -65 -1q-344 0 -449 66q-120 77 -120 245q0 99 40 190q66 152 211 219q151 71 593 71q357 0 614 -28z" />
    <glyph glyph-name="Scedilla" unicode="&#x15e;" horiz-adv-x="1692" vert-adv-y="2457" 
d="M949 97l-327 -474h-291l245 474h373zM923 -21l126 171h-501l-95 -173q-231 12 -505 63l79 374q411 -66 737 -66q80 0 109 38q13 17 13 35t-14 28q-14 9 -75 9h-115q-102 0 -250 17q-147 17 -230 77q-120 87 -120 243q0 104 42 213q63 163 198 250q210 137 719 137
q362 0 704 -69l-85 -400q-102 17 -232 28q-227 19 -308 19h-155q-144 0 -144 -74q0 -43 65 -43l245 -2q286 -2 387 -84q104 -85 104 -241q0 -114 -63 -223q-155 -270 -531 -317q-37 -5 -105 -10z" />
    <glyph glyph-name="scedilla" unicode="&#x15f;" horiz-adv-x="1495" vert-adv-y="2457" 
d="M871 107l-335 -457h-319l250 457h404zM824 -19l124 169h-501l-94 -171q-190 12 -376 34l45 337q316 -39 505 -39q176 0 219 5q46 5 46 48q0 26 -39 26h-62q-46 -1 -65 -1q-344 0 -448 66q-121 77 -121 245q0 100 40 190q66 152 211 219q151 71 593 71q357 0 614 -28
l-77 -363q-225 26 -481 26q-189 0 -224 -16q-30 -14 -30 -41q0 -28 57 -28l118 2q26 0 273 -4q266 -5 266 -242q0 -157 -86 -283q-78 -114 -195 -160q-123 -48 -312 -62z" />
    <glyph glyph-name="Scaron" unicode="&#x160;" horiz-adv-x="1692" vert-adv-y="2457" 
d="M989 1301l139 202h305l-189 -243h-528l-85 243h304zM609 1357l64 -156h589l146 175q172 -17 337 -50l-85 -400q-101 16 -232 27q-228 19 -308 19h-155q-145 0 -145 -74q0 -43 66 -43l245 -2q286 -2 387 -84q104 -84 104 -240q0 -79 -32 -159q-96 -240 -373 -338
q-174 -61 -518 -61q-296 0 -538 34q-86 12 -213 35l79 374q410 -66 737 -66q80 0 109 38q13 17 13 35t-14 28q-14 9 -75 9h-115q-105 0 -251 17q-147 17 -230 77q-120 87 -120 241q0 105 43 215q90 233 336 311q61 20 149 38z" />
    <glyph glyph-name="scaron" unicode="&#x161;" horiz-adv-x="1495" vert-adv-y="2457" 
d="M893 1327l130 175h319l-193 -232h-536l-95 232h320zM1515 1152l-77 -363q-224 26 -479 26q-192 0 -226 -16q-30 -15 -30 -41q0 -28 57 -28l118 2q26 0 273 -4q266 -5 266 -242q0 -106 -44 -206q-92 -211 -339 -269q-169 -40 -442 -40q-255 0 -615 42l45 338
q316 -39 505 -39q177 0 219 5q46 5 46 48q0 26 -39 26q-23 0 -62 -1q-44 -1 -65 -1q-344 0 -449 66q-120 77 -120 245q0 99 40 190q66 152 211 219q151 71 593 71q357 0 614 -28z" />
    <glyph glyph-name="Tcommaaccent" unicode="&#x162;" horiz-adv-x="1515" vert-adv-y="2457" 
d="M857 94l-327 -474h-291l245 474h373zM847 0l111 150h-502l-82 -150h-104l174 822h-410l115 543h1523l-115 -543h-410l-175 -822h-125z" />
    <glyph glyph-name="tcommaaccent" unicode="&#x163;" horiz-adv-x="1303" vert-adv-y="2457" 
d="M789 104l-336 -457h-318l249 457h405zM747 -17l122 167h-501l-90 -163q-179 46 -179 212q0 41 8 80l88 412h-198l50 233l590 441h364l-45 -214h455l-98 -460h-455l-50 -237q-7 -31 -7 -53q0 -26 11 -43q16 -23 106 -24q54 -1 70 -1q78 0 173 12l-152 -323
q-139 -28 -262 -39z" />
    <glyph glyph-name="Tcaron" unicode="&#x164;" horiz-adv-x="1515" vert-adv-y="2457" 
d="M897 1301l140 202h304l-189 -243h-528l-85 243h304zM514 1365l67 -164h590l136 164h365l-115 -543h-410l-175 -822h-702l174 822h-410l115 543h365z" />
    <glyph glyph-name="tcaron" unicode="&#x165;" horiz-adv-x="1364" vert-adv-y="2457" 
d="M1567 1416l-336 -457h-318l249 457h405zM970 1151l-130 -238h400l169 230l-96 -452h-455l-50 -237q-7 -31 -7 -53q0 -26 11 -43q16 -23 106 -24q54 -1 70 -1q79 0 173 12l-152 -323q-260 -51 -536 -51q-153 0 -230 29q-144 55 -144 199q0 41 8 80l88 412h-198l50 233
l590 441h379z" />
    <glyph glyph-name="Umacron" unicode="&#x16a;" horiz-adv-x="1848" vert-adv-y="2457" 
d="M1475 1332h-809l37 171h809zM619 1365l-21 -98h319l-158 -742q-12 -57 -12 -91q0 -33 22 -48q35 -26 94 -26q81 0 128 49q30 32 49 116l157 742h319l21 98h383l-175 -825q-48 -227 -114 -313q-196 -256 -848 -256q-264 0 -423 45q-324 92 -324 323q0 87 28 220l172 806
h383z" />
    <glyph glyph-name="umacron" unicode="&#x16b;" horiz-adv-x="1716" vert-adv-y="2457" 
d="M1405 1280h-822l35 167h823zM1766 1151l-148 -698q-56 -259 -227 -358q-216 -124 -679 -124q-432 0 -600 134q-105 83 -105 241q0 51 12 107l148 698h663l-140 -660q-14 -66 -14 -86q0 -86 110 -86q80 0 124 49q28 30 38 65q6 19 14 58l141 660h663z" />
    <glyph glyph-name="Uring" unicode="&#x16e;" horiz-adv-x="1848" vert-adv-y="2457" 
d="M681 1365q-34 -66 -34 -127q0 -153 225 -182l-113 -531q-11 -54 -11 -86q0 -34 25 -53q34 -26 92 -26q85 0 129 46q27 29 46 119l113 531q156 19 237 91q87 77 87 190q0 9 -2 28h445l-175 -825q-28 -132 -59.5 -206.5t-83.5 -129.5q-219 -233 -821 -233q-264 0 -426 43
q-195 52 -268 151q-54 74 -54 158q0 88 32 236l171 806h445zM1111 1515q215 0 280 -67q35 -35 35 -91q0 -253 -405 -253q-215 0 -280 67q-35 36 -35 91q0 253 405 253zM1089 1408q-72 0 -105 -50q-24 -37 -24 -94q0 -63 87 -63q71 0 104 51q24 36 24 93q0 63 -86 63z" />
    <glyph glyph-name="uring" unicode="&#x16f;" horiz-adv-x="1716" vert-adv-y="2457" 
d="M604 1151q54 -79 206 -95l-120 -565q-12 -57 -12 -80q0 -92 113 -92q81 0 121 46q31 36 51 126l120 565q158 16 245 95h438l-148 -698q-52 -246 -235 -353q-220 -129 -671 -129q-516 0 -647 168q-59 75 -59 194q0 59 13 120l148 698h437zM1036 1470q213 0 278 -59
q35 -32 35 -81q0 -217 -391 -217q-214 0 -279 59q-35 33 -35 81q0 97 78 153q91 64 314 64zM1017 1369q-112 0 -112 -113q0 -50 76 -50q111 0 111 113q0 50 -75 50z" />
    <glyph glyph-name="Uhungarumlaut" unicode="&#x170;" horiz-adv-x="1848" vert-adv-y="2457" 
d="M1038 1260h-363l214 243h364zM1496 1260h-364l215 243h363zM1183 1201h319l156 164h262l-175 -826q-49 -226 -114 -312q-196 -256 -848 -256q-265 0 -422 45q-325 92 -325 324q0 86 28 219l172 806h467l-156 -164h356l-144 -676q-12 -57 -12 -91q0 -32 22 -48
q35 -26 94 -26q81 0 128 49q30 32 48 116z" />
    <glyph glyph-name="uhungarumlaut" unicode="&#x171;" horiz-adv-x="1716" vert-adv-y="2457" 
d="M954 1270h-379l221 232h379zM1439 1270h-379l220 232h379zM1766 1151l-148 -698q-56 -259 -227 -358q-216 -124 -679 -124q-432 0 -600 134q-105 83 -105 241q0 51 12 107l148 698h663l-140 -660q-14 -66 -14 -86q0 -86 110 -86q80 0 124 49q28 30 38 65q6 19 14 58
l141 660h663z" />
    <glyph glyph-name="Uogonek" unicode="&#x172;" horiz-adv-x="1848" vert-adv-y="2457" 
d="M1580 181q-56 -9 -90 -20q-110 -33 -189 -127q-209 -63 -516 -63q-269 0 -430 43q-195 52 -268 151q-54 74 -54 158q0 88 32 236l171 806h702l-179 -840q-11 -54 -11 -86q0 -34 25 -53q34 -26 92 -26q85 0 129 46q27 29 46 119l178 840h702l-175 -825q-45 -210 -109 -297
q-21 -28 -56 -62zM1606 13q-143 -32 -143 -171q0 -74 86 -95l-26 -124q-240 19 -240 199q0 71 33 135q82 160 316 179z" />
    <glyph glyph-name="uogonek" unicode="&#x173;" horiz-adv-x="1716" vert-adv-y="2457" 
d="M1487 184q-63 -10 -106 -23q-123 -37 -201 -142q-193 -48 -474 -48q-510 0 -641 168q-59 75 -59 194q0 59 13 120l148 698h663l-140 -660q-12 -57 -12 -80q0 -92 113 -92q81 0 121 46q31 36 51 126l140 660h663l-148 -698q-34 -161 -131 -269zM1508 3q-136 -21 -136 -139
q0 -67 89 -82l-28 -136q-269 17 -269 197q0 64 32 124q84 154 341 172z" />
    <glyph glyph-name="Zacute" unicode="&#x179;" horiz-adv-x="1615" vert-adv-y="2457" 
d="M1196 1260h-479l215 243h479zM748 1365l-156 -164h614l156 164h358l-86 -406l-694 -513h585l-95 -446h-1526l65 306l746 581h-622l101 478h554z" />
    <glyph glyph-name="zacute" unicode="&#x17a;" horiz-adv-x="1448" vert-adv-y="2457" 
d="M1118 1270h-495l221 232h495zM1270 0h-1366l57 267l637 419h-529l99 465h1327l-76 -361l-566 -393h502z" />
    <glyph glyph-name="Zdotaccent" unicode="&#x17b;" horiz-adv-x="1615" vert-adv-y="2457" 
d="M780 1260l52 243h302l-51 -243h-303zM748 1365l-35 -164h412l35 164h560l-86 -406l-694 -513h585l-95 -446h-1526l65 306l746 581h-622l101 478h554z" />
    <glyph glyph-name="zdotaccent" unicode="&#x17c;" horiz-adv-x="1448" vert-adv-y="2457" 
d="M698 1270l49 232h316l-49 -232h-316zM1270 0h-1366l57 267l637 419h-529l99 465h1327l-76 -361l-566 -393h502z" />
    <glyph glyph-name="Zcaron" unicode="&#x17d;" horiz-adv-x="1615" vert-adv-y="2457" 
d="M943 1301l140 202h304l-189 -243h-528l-85 243h304zM558 1365l66 -164h590l136 164h370l-86 -406l-694 -513h585l-95 -446h-1526l65 306l746 581h-622l101 478h364z" />
    <glyph glyph-name="zcaron" unicode="&#x17e;" horiz-adv-x="1448" vert-adv-y="2457" 
d="M868 1327l129 175h320l-193 -232h-536l-95 232h320zM1270 0h-1366l57 267l637 419h-529l99 465h1327l-76 -361l-566 -393h502z" />
    <glyph glyph-name="uni01D3" unicode="&#x1d3;" horiz-adv-x="1848" vert-adv-y="2457" 
d="M1064 1301l140 202h304l-188 -243h-528l-86 243h304zM682 1365l66 -164h155l-144 -676q-12 -58 -12 -91q0 -32 22 -48q35 -26 94 -26q81 0 128 49q31 31 49 116l143 676h155l137 164h445l-175 -826q-48 -226 -114 -312q-196 -256 -848 -256q-264 0 -423 45
q-324 92 -324 323q0 86 28 220l172 806h446z" />
    <glyph glyph-name="uni01D4" unicode="&#x1d4;" horiz-adv-x="1716" vert-adv-y="2457" 
d="M1004 1327l129 175h320l-193 -232h-536l-95 232h320zM1766 1151l-148 -698q-56 -259 -227 -358q-216 -124 -679 -124q-432 0 -600 134q-105 83 -105 241q0 51 12 107l148 698h663l-140 -660q-14 -66 -14 -86q0 -86 110 -86q80 0 124 49q28 30 38 65q6 19 14 58l141 660
h663z" />
    <glyph glyph-name="Scommaaccent" unicode="&#x218;" horiz-adv-x="1692" vert-adv-y="2457" 
d="M972 104l-336 -457h-318l249 457h405zM923 -21l126 171h-501l-95 -173q-231 12 -505 63l79 374q411 -66 737 -66q80 0 109 38q13 17 13 35t-14 28q-14 9 -75 9h-115q-102 0 -250 17q-147 17 -230 77q-120 87 -120 243q0 104 42 213q63 163 198 250q210 137 719 137
q362 0 704 -69l-85 -400q-102 17 -232 28q-227 19 -308 19h-155q-144 0 -144 -74q0 -43 65 -43l245 -2q286 -2 387 -84q104 -85 104 -241q0 -114 -63 -223q-155 -270 -531 -317q-37 -5 -105 -10z" />
    <glyph glyph-name="scommaaccent" unicode="&#x219;" horiz-adv-x="1495" vert-adv-y="2457" 
d="M871 107l-335 -457h-319l250 457h404zM824 -19l124 169h-501l-94 -171q-190 12 -376 34l45 337q316 -39 505 -39q176 0 219 5q46 5 46 48q0 26 -39 26h-62q-46 -1 -65 -1q-344 0 -448 66q-121 77 -121 245q0 100 40 190q66 152 211 219q151 71 593 71q357 0 614 -28
l-77 -363q-225 26 -481 26q-189 0 -224 -16q-30 -14 -30 -41q0 -28 57 -28l118 2q26 0 273 -4q266 -5 266 -242q0 -157 -86 -283q-78 -114 -195 -160q-123 -48 -312 -62z" />
    <glyph glyph-name="uni021A" unicode="&#x21a;" horiz-adv-x="1515" vert-adv-y="2457" 
d="M857 94l-327 -474h-291l245 474h373zM847 0l111 150h-502l-82 -150h-104l174 822h-410l115 543h1523l-115 -543h-410l-175 -822h-125z" />
    <glyph glyph-name="uni021B" unicode="&#x21b;" horiz-adv-x="1303" vert-adv-y="2457" 
d="M789 104l-336 -457h-318l249 457h405zM747 -17l122 167h-501l-90 -163q-179 46 -179 212q0 41 8 80l88 412h-198l50 233l590 441h364l-45 -214h455l-98 -460h-455l-50 -237q-7 -31 -7 -53q0 -26 11 -43q16 -23 106 -24q54 -1 70 -1q78 0 173 12l-152 -323
q-139 -28 -262 -39z" />
    <glyph glyph-name="uni02C9" unicode="&#x2c9;" horiz-adv-x="1024" vert-adv-y="2457" 
d="M1082 1294h-863l44 208h864z" />
    <glyph glyph-name="uni2011" unicode="&#x2011;" horiz-adv-x="750" vert-adv-y="2457" 
d="M671 394h-696l81 382h696z" />
    <glyph glyph-name="figuredash" unicode="&#x2012;" horiz-adv-x="1530" vert-adv-y="2457" 
d="M1451 394h-1476l81 382h1476z" />
    <glyph glyph-name="afii00208" unicode="&#x2015;" horiz-adv-x="1717" vert-adv-y="2457" 
d="M1715 761l-75 -350h-1662l74 350h1663z" />
    <glyph glyph-name="franc" unicode="&#x20a3;" horiz-adv-x="2895" vert-adv-y="2457" 
d="M1563 353h-841l-75 -353h-702l290 1365h1544l-98 -458h-841l-29 -138h841zM2269 0h-663l244 1151h619l-62 -293q46 110 85 164q67 94 149 128q73 31 211 31q60 0 142 -10l-136 -641h-42l-93 1q-183 0 -285 -65q-63 -40 -88 -104q-10 -26 -20 -74z" />
    <glyph glyph-name="peseta" unicode="&#x20a7;" horiz-adv-x="2836" vert-adv-y="2457" 
d="M647 0h-702l290 1365h1011q269 0 383 -147q58 -74 58 -204q0 -118 -45 -235q-108 -278 -402 -379q-182 -62 -457 -62h-64zM793 685q93 15 136 62q51 56 51 126q0 44 -28 71q-28 26 -98 27zM1295 394q158 69 254 181q89 105 134 244h130l-27 -126h283l-61 -285h-282
l-31 -146q-4 -18 -4 -29q0 -19 9 -25q13 -10 79 -11h136l-93 -183q-166 -31 -336 -31q-153 0 -211 49q-33 29 -33 86q0 25 6 53zM1846 5l97 192h239q122 0 131 10q4 5 4 13q0 10 -23 10l-74 -1q-157 0 -243 22q-100 25 -118 129h171l65 308q101 22 285 22q231 0 399 -18
l-49 -228q-144 17 -281 17q-145 0 -161 -10q-11 -6 -11 -14q0 -13 37 -13l63 1q64 0 173 -2q103 -3 142 -50q31 -36 31 -95q0 -65 -30 -127q-61 -125 -217 -163q-105 -25 -274 -25q-155 0 -356 22z" />
    <glyph glyph-name="afii61248" unicode="&#x2105;" horiz-adv-x="1092" vert-adv-y="2457" 
d="M593 870q113 0 172 -32q60 -34 60 -116q0 -105 -81 -166t-230 -61q-103 0 -170 44q-58 38 -58 109q0 117 85 175q70 47 222 47z" />
    <glyph glyph-name="minus" unicode="&#x2212;" horiz-adv-x="1092" vert-adv-y="2457" 
d="M72 838h1031l-66 -310h-1031z" />
    <glyph glyph-name="uni2219" unicode="&#x2219;" horiz-adv-x="615" vert-adv-y="2457" 
d="M334 773q113 0 172 -33q61 -33 61 -115q0 -105 -81 -166t-231 -61q-103 0 -170 44q-58 38 -58 109q0 222 307 222z" />
    </font>
</defs>
</svg>
