<?xml version="1.0" encoding="UTF-8"?>
<svg xmlns="http://www.w3.org/2000/svg" xmlns:xlink="http://www.w3.org/1999/xlink" width="20pt" height="20pt" viewBox="0 0 20 20" version="1.1">
<g id="surface1">
<path style=" stroke:none;fill-rule:nonzero;fill:rgb(95.686275%,38.039216%,38.039216%);fill-opacity:1;" d="M 10 0 C 4.476562 0 0 4.476562 0 10 C 0 15.523438 4.476562 20 10 20 C 15.523438 20 20 15.523438 20 10 C 20 4.476562 15.523438 0 10 0 Z M 14.21875 11.101562 L 11 11.101562 L 11 14.464844 C 11 15.027344 10.542969 15.484375 9.980469 15.484375 C 9.414062 15.484375 8.957031 15.027344 8.957031 14.464844 L 8.957031 11.101562 L 5.824219 11.101562 C 5.261719 11.101562 4.804688 10.640625 4.804688 10.078125 C 4.804688 9.515625 5.261719 9.054688 5.824219 9.054688 L 8.957031 9.054688 L 8.957031 6.070312 C 8.957031 5.507812 9.414062 5.046875 9.980469 5.046875 C 10.542969 5.046875 11 5.507812 11 6.070312 L 11 9.054688 L 14.21875 9.054688 C 14.78125 9.054688 15.242188 9.515625 15.238281 10.078125 C 15.242188 10.644531 14.78125 11.101562 14.21875 11.101562 Z M 14.21875 11.101562 "/>
</g>
</svg>
