<svg xmlns="http://www.w3.org/2000/svg" xmlns:xlink="http://www.w3.org/1999/xlink" width="20pt" height="20pt" viewBox="0 0 20 20"><g id="surface1"><path style=" stroke:none;fill-rule:evenodd;fill:rgb(100%,79.607843%,3.137255%);fill-opacity:1;" d="M 20 10 C 20 4.476562 15.523438 0 10 0 C 4.476562 0 0 4.476562 0 10 C 0 15.523438 4.476562 20 10 20 C 15.523438 20 20 15.523438 20 10 Z M 20 10 "></path><path style=" stroke:none;fill-rule:nonzero;fill:rgb(4.705882%,30.588235%,63.921569%);fill-opacity:1;" d="M 15.339844 7.046875 C 14.125 7.046875 13.136719 8.039062 13.136719 9.261719 L 13.136719 9.269531 C 9.195312 10.421875 5.324219 13.335938 3.40625 17.519531 C 4.433594 18.429688 5.640625 19.101562 6.945312 19.527344 C 7.671875 15.144531 10.882812 11.816406 13.671875 10.699219 C 14.089844 11.1875 14.699219 11.472656 15.339844 11.472656 C 16.558594 11.472656 17.546875 10.480469 17.546875 9.261719 C 17.546875 8.039062 16.558594 7.050781 15.339844 7.050781 Z M 15.339844 7.046875 "></path><path style=" stroke:none;fill-rule:evenodd;fill:rgb(4.705882%,30.588235%,63.921569%);fill-opacity:1;" d="M 8.390625 2.835938 C 7.171875 2.835938 6.183594 3.828125 6.183594 5.046875 C 6.183594 5.097656 6.1875 5.148438 6.191406 5.195312 C 3.449219 6.28125 1.363281 8.082031 0.00390625 10.257812 C 0.0625 12.195312 0.652344 14.078125 1.757812 15.664062 C 1.859375 12.109375 3.632812 8.699219 6.65625 6.410156 C 7.074219 6.945312 7.710938 7.257812 8.390625 7.257812 C 9.609375 7.257812 10.59375 6.269531 10.59375 5.046875 C 10.59375 3.828125 9.609375 2.835938 8.390625 2.835938 Z M 8.390625 2.835938 "></path></g></svg>