<?xml version="1.0" encoding="UTF-8"?>
<svg xmlns="http://www.w3.org/2000/svg" xmlns:xlink="http://www.w3.org/1999/xlink" width="20pt" height="20pt" viewBox="0 0 20 20" version="1.1">
<g id="surface1">
<path style=" stroke:none;fill-rule:nonzero;fill:rgb(95.686275%,38.039216%,38.039216%);fill-opacity:1;" d="M 10 0 C 4.484375 0 0 4.484375 0 10 C 0 15.515625 4.484375 20 10 20 C 15.515625 20 20 15.515625 20 10 C 20 4.484375 15.515625 0 10 0 Z M 14.375 10.832031 L 5.625 10.832031 C 5.164062 10.832031 4.792969 10.460938 4.792969 10 C 4.792969 9.539062 5.164062 9.167969 5.625 9.167969 L 14.375 9.167969 C 14.835938 9.167969 15.207031 9.539062 15.207031 10 C 15.207031 10.460938 14.835938 10.832031 14.375 10.832031 Z M 14.375 10.832031 "/>
</g>
</svg>
