<svg width="18" height="19" viewBox="0 0 18 19" fill="none" xmlns="http://www.w3.org/2000/svg">
<path d="M14.8333 7.33334H3.16667C2.24619 7.33334 1.5 8.07954 1.5 9.00001V15.6667C1.5 16.5872 2.24619 17.3333 3.16667 17.3333H14.8333C15.7538 17.3333 16.5 16.5872 16.5 15.6667V9.00001C16.5 8.07954 15.7538 7.33334 14.8333 7.33334Z" stroke="#979797" stroke-width="1.5" stroke-linecap="round" stroke-linejoin="round"/>
<path d="M4 4C4 3.33696 4.26339 2.70107 4.73223 2.23223C5.20107 1.76339 5.83696 1.5 6.5 1.5H11.5C12.163 1.5 12.7989 1.76339 13.2678 2.23223C13.7366 2.70107 14 3.33696 14 4V7.33333H4V4Z" stroke="#979797" stroke-width="1.5" stroke-linecap="round" stroke-linejoin="round"/>
</svg>
