<svg width="20" height="19" viewBox="0 0 20 19" fill="none" xmlns="http://www.w3.org/2000/svg">
<path d="M8.79497 4.7L5.9758 1.44584C5.6508 1.07084 5.05497 1.0725 4.67747 1.45084L2.35914 3.77334C1.66914 4.46417 1.47164 5.49 1.8708 6.3125C4.25548 11.25 8.23751 15.2376 13.1716 17.6292C13.9933 18.0283 15.0183 17.8308 15.7083 17.14L18.0483 14.7958C18.4275 14.4167 18.4283 13.8175 18.05 13.4925L14.7833 10.6883C14.4416 10.395 13.9108 10.4333 13.5683 10.7767L12.4316 11.915C12.3734 11.976 12.2968 12.0162 12.2136 12.0294C12.1303 12.0427 12.045 12.0282 11.9708 11.9883C10.1128 10.9184 8.57163 9.3752 7.50413 7.51584C7.46416 7.44146 7.44968 7.35603 7.46293 7.27263C7.47617 7.18924 7.51641 7.1125 7.57747 7.05417L8.7108 5.92C9.05413 5.575 9.09163 5.04167 8.79497 4.69917V4.7Z" stroke="#979797" stroke-width="1.5" stroke-linecap="round" stroke-linejoin="round"/>
</svg>
